<?xml version="1.0" encoding="UTF-8"?>
<svg xmlns="http://www.w3.org/2000/svg" xmlns:xlink="http://www.w3.org/1999/xlink" width="32px" height="32px" viewBox="0 0 32 32" version="1.1">
<g id="surface1">
<path style=" stroke:none;fill-rule:nonzero;fill:rgb(0%,0%,0%);fill-opacity:1;" d="M 0.0820312 27.765625 C 0.0625 18.621094 0.0625 9.496094 0.0546875 0.367188 C 0.0546875 0.0820312 0.136719 0.0546875 0.382812 0.0546875 C 1.609375 0.0703125 2.839844 0.0625 4.097656 0.0625 C 4.242188 0.152344 4.265625 0.28125 4.269531 0.417969 C 4.277344 0.695312 4.28125 0.972656 4.257812 1.277344 C 4.277344 1.871094 4.292969 2.433594 4.246094 3.023438 C 4.171875 3.65625 4.246094 4.265625 4.191406 4.902344 C 4.105469 5.582031 4.21875 6.242188 4.074219 6.921875 C 4.128906 7.613281 4.027344 8.273438 4.003906 8.964844 C 3.960938 9.664062 3.9375 10.332031 3.875 11.03125 C 3.8125 11.734375 3.835938 12.414062 3.691406 13.109375 C 3.722656 13.78125 3.59375 14.421875 3.566406 15.09375 C 3.46875 15.613281 3.476562 16.121094 3.410156 16.617188 C 3.375 16.851562 3.339844 17.085938 3.3125 17.347656 C 3.253906 18.046875 3.160156 18.710938 3.050781 19.402344 C 2.96875 20.171875 2.832031 20.902344 2.683594 21.660156 C 2.539062 22.515625 2.402344 23.34375 2.140625 24.171875 C 1.933594 25.128906 1.640625 26.027344 1.167969 26.886719 C 1.003906 27.222656 0.777344 27.480469 0.519531 27.707031 C 0.398438 27.8125 0.265625 27.894531 0.0820312 27.765625 Z M 0.0820312 27.765625 "/>
<path style=" stroke:none;fill-rule:nonzero;fill:rgb(1.176471%,30.588236%,65.098041%);fill-opacity:1;" d="M 4.15625 1.335938 C 4.132812 0.914062 4.128906 0.519531 4.125 0.0898438 C 13.34375 0.0625 22.566406 0.0625 31.785156 0.0546875 C 32.03125 0.0546875 32.082031 0.121094 32.066406 0.347656 C 32.046875 0.710938 32.0625 1.078125 32.0625 1.472656 C 31.796875 1.734375 31.496094 1.644531 31.171875 1.589844 C 31.125 1.570312 31.097656 1.566406 31.089844 1.550781 C 30.949219 1.121094 30.601562 1.128906 30.242188 1.144531 C 29.996094 1.160156 29.75 1.15625 29.5 1.148438 C 29.289062 1.136719 29.117188 1.203125 28.960938 1.382812 C 28.640625 1.480469 28.34375 1.492188 28.019531 1.386719 C 27.972656 1.363281 27.957031 1.351562 27.921875 1.3125 C 27.851562 1.171875 27.761719 1.117188 27.632812 1.125 C 27.558594 1.128906 27.484375 1.125 27.414062 1.125 C 20.160156 1.125 12.910156 1.125 5.660156 1.128906 C 5.503906 1.128906 5.320312 1.054688 5.1875 1.265625 C 5.160156 1.308594 5.148438 1.324219 5.109375 1.359375 C 4.777344 1.476562 4.476562 1.523438 4.15625 1.335938 Z M 4.15625 1.335938 "/>
<path style=" stroke:none;fill-rule:nonzero;fill:rgb(78.039217%,25.882354%,69.803923%);fill-opacity:1;" d="M 32.039062 30.855469 C 32.0625 31.230469 32.058594 31.582031 32.066406 31.9375 C 32.066406 32.042969 32.050781 32.085938 31.9375 32.0625 C 31.886719 32.054688 31.835938 32.0625 31.78125 32.0625 C 22.605469 32.0625 13.425781 32.0625 4.214844 32.0625 C 4.078125 31.980469 4.046875 31.859375 4.046875 31.730469 C 4.046875 31.410156 4.003906 31.089844 4.113281 30.746094 C 4.460938 30.5 4.808594 30.5 5.203125 30.621094 C 5.382812 30.921875 5.632812 30.980469 5.9375 30.980469 C 13.039062 30.972656 20.140625 30.976562 27.242188 30.976562 C 27.507812 30.976562 27.773438 30.980469 27.929688 30.664062 C 28.246094 30.5 28.550781 30.523438 28.886719 30.59375 C 29.152344 31.03125 29.554688 30.996094 29.957031 30.976562 C 30.160156 30.96875 30.367188 30.972656 30.574219 30.976562 C 30.769531 30.984375 30.9375 30.9375 31.109375 30.792969 C 31.433594 30.722656 31.734375 30.660156 32.039062 30.855469 Z M 32.039062 30.855469 "/>
<path style=" stroke:none;fill-rule:nonzero;fill:rgb(69.803923%,26.666668%,69.411767%);fill-opacity:1;" d="M 0.0625 27.777344 C 0.4375 27.734375 0.597656 27.421875 0.8125 27.1875 C 0.894531 27.101562 0.949219 26.988281 1.035156 26.882812 C 1.371094 26.652344 1.710938 26.710938 2.078125 26.800781 C 2.253906 26.945312 2.148438 27.078125 2.097656 27.238281 C 1.964844 27.578125 2.003906 27.644531 2.316406 27.660156 C 2.378906 27.664062 2.441406 27.664062 2.503906 27.664062 C 9.457031 27.664062 16.40625 27.660156 23.359375 27.667969 C 23.808594 27.667969 24.203125 27.566406 24.566406 27.253906 C 24.832031 27.246094 25.066406 27.214844 25.300781 27.234375 C 25.433594 27.242188 25.566406 27.253906 25.671875 27.40625 C 25.742188 27.566406 25.679688 27.675781 25.613281 27.78125 C 25.140625 28.496094 24.511719 28.90625 23.617188 28.902344 C 18.042969 28.894531 12.46875 28.898438 6.890625 28.898438 C 6.519531 28.898438 6.144531 28.898438 5.769531 28.902344 C 5.585938 28.902344 5.417969 28.925781 5.246094 29.0625 C 4.890625 29.171875 4.558594 29.175781 4.199219 29.085938 C 3.957031 28.925781 3.71875 28.894531 3.464844 28.898438 C 2.511719 28.902344 1.558594 28.902344 0.605469 28.898438 C 0.433594 28.894531 0.25 28.929688 0.0820312 28.769531 C 0.0625 28.4375 0.0625 28.121094 0.0625 27.777344 Z M 0.0625 27.777344 "/>
<path style=" stroke:none;fill-rule:nonzero;fill:rgb(0%,0%,0%);fill-opacity:1;" d="M 0.0625 28.777344 C 1.355469 28.75 2.648438 28.75 3.945312 28.75 C 4.085938 28.75 4.222656 28.734375 4.195312 28.972656 C 4.226562 29.03125 4.269531 29.0625 4.273438 29.097656 C 4.355469 29.632812 4.414062 30.171875 4.21875 30.726562 C 4.195312 31.167969 4.191406 31.585938 4.1875 32.035156 C 2.878906 32.0625 1.570312 32.058594 0.265625 32.066406 C 0.0898438 32.070312 0.0546875 32.03125 0.0585938 31.859375 C 0.0664062 30.84375 0.0625 29.824219 0.0625 28.777344 Z M 0.0625 28.777344 "/>
<path style=" stroke:none;fill-rule:nonzero;fill:rgb(25.098041%,29.019609%,66.666669%);fill-opacity:1;" d="M 32.039062 9.226562 C 32.0625 9.917969 32.0625 10.585938 32.0625 11.285156 C 31.773438 11.546875 31.457031 11.46875 31.113281 11.371094 C 31.050781 11.316406 31.011719 11.277344 31.007812 11.222656 C 30.96875 10.570312 30.921875 9.917969 31.058594 9.242188 C 31.390625 9.070312 31.703125 9.042969 32.039062 9.226562 Z M 32.039062 9.226562 "/>
<path style=" stroke:none;fill-rule:nonzero;fill:rgb(30.19608%,28.627452%,67.058825%);fill-opacity:1;" d="M 31.105469 11.328125 C 31.425781 11.3125 31.714844 11.3125 32.035156 11.3125 C 32.0625 11.960938 32.0625 12.605469 32.0625 13.285156 C 31.773438 13.546875 31.457031 13.46875 31.113281 13.371094 C 31.066406 13.332031 31.035156 13.3125 31.03125 13.28125 C 30.941406 12.660156 30.949219 12.039062 31.027344 11.417969 C 31.03125 11.386719 31.058594 11.367188 31.105469 11.328125 Z M 31.105469 11.328125 "/>
<path style=" stroke:none;fill-rule:nonzero;fill:rgb(49.803922%,27.450982%,68.235296%);fill-opacity:1;" d="M 32.039062 19.289062 C 32.0625 19.960938 32.0625 20.605469 32.0625 21.285156 C 31.773438 21.546875 31.457031 21.46875 31.113281 21.371094 C 31.050781 21.316406 31.011719 21.277344 31.007812 21.222656 C 30.96875 20.589844 30.921875 19.957031 31.058594 19.304688 C 31.390625 19.132812 31.703125 19.105469 32.039062 19.289062 Z M 32.039062 19.289062 "/>
<path style=" stroke:none;fill-rule:nonzero;fill:rgb(59.215689%,27.450982%,68.627453%);fill-opacity:1;" d="M 32.039062 23.289062 C 32.0625 23.960938 32.0625 24.605469 32.0625 25.285156 C 31.773438 25.546875 31.457031 25.46875 31.113281 25.371094 C 31.050781 25.316406 31.011719 25.277344 31.007812 25.222656 C 30.96875 24.589844 30.921875 23.957031 31.058594 23.304688 C 31.390625 23.132812 31.703125 23.105469 32.039062 23.289062 Z M 32.039062 23.289062 "/>
<path style=" stroke:none;fill-rule:nonzero;fill:rgb(55.29412%,27.450982%,68.235296%);fill-opacity:1;" d="M 32.0625 23.285156 C 31.773438 23.3125 31.480469 23.3125 31.164062 23.3125 C 31.039062 23.269531 31 23.1875 30.996094 23.089844 C 30.964844 22.5625 30.960938 22.035156 31 21.507812 C 31.003906 21.441406 31.03125 21.386719 31.105469 21.328125 C 31.425781 21.3125 31.714844 21.3125 32.035156 21.3125 C 32.0625 21.960938 32.0625 22.605469 32.0625 23.285156 Z M 32.0625 23.285156 "/>
<path style=" stroke:none;fill-rule:nonzero;fill:rgb(35.294119%,29.019609%,67.450982%);fill-opacity:1;" d="M 31.105469 13.328125 C 31.425781 13.3125 31.714844 13.3125 32.035156 13.3125 C 32.0625 13.960938 32.0625 14.605469 32.0625 15.285156 C 31.773438 15.546875 31.457031 15.46875 31.113281 15.371094 C 31.066406 15.328125 31.035156 15.3125 31.03125 15.28125 C 30.941406 14.660156 30.949219 14.039062 31.027344 13.417969 C 31.03125 13.386719 31.058594 13.367188 31.105469 13.328125 Z M 31.105469 13.328125 "/>
<path style=" stroke:none;fill-rule:nonzero;fill:rgb(19.607843%,29.803923%,66.666669%);fill-opacity:1;" d="M 32.0625 9.222656 C 31.773438 9.25 31.480469 9.25 31.164062 9.25 C 31.050781 9.210938 31.003906 9.144531 31 9.058594 C 30.980469 8.457031 30.917969 7.859375 31.058594 7.238281 C 31.390625 7.070312 31.703125 7.042969 32.039062 7.226562 C 32.0625 7.898438 32.0625 8.542969 32.0625 9.222656 Z M 32.0625 9.222656 "/>
<path style=" stroke:none;fill-rule:nonzero;fill:rgb(40.000001%,28.235295%,67.450982%);fill-opacity:1;" d="M 31.105469 15.328125 C 31.425781 15.3125 31.714844 15.3125 32.035156 15.3125 C 32.0625 15.960938 32.0625 16.605469 32.0625 17.285156 C 31.773438 17.546875 31.457031 17.46875 31.113281 17.371094 C 31.066406 17.332031 31.035156 17.3125 31.03125 17.28125 C 30.941406 16.660156 30.949219 16.039062 31.027344 15.417969 C 31.03125 15.386719 31.058594 15.367188 31.105469 15.328125 Z M 31.105469 15.328125 "/>
<path style=" stroke:none;fill-rule:nonzero;fill:rgb(65.098041%,26.666668%,69.01961%);fill-opacity:1;" d="M 31.105469 25.328125 C 31.425781 25.3125 31.714844 25.3125 32.035156 25.3125 C 32.0625 25.960938 32.0625 26.605469 32.0625 27.285156 C 31.773438 27.546875 31.457031 27.46875 31.113281 27.371094 C 31.066406 27.328125 31.035156 27.308594 31.03125 27.28125 C 30.941406 26.660156 30.949219 26.039062 31.027344 25.417969 C 31.03125 25.386719 31.058594 25.367188 31.105469 25.328125 Z M 31.105469 25.328125 "/>
<path style=" stroke:none;fill-rule:nonzero;fill:rgb(45.490196%,28.235295%,68.235296%);fill-opacity:1;" d="M 31.105469 17.328125 C 31.425781 17.3125 31.714844 17.3125 32.035156 17.3125 C 32.0625 17.960938 32.0625 18.605469 32.0625 19.285156 C 31.773438 19.3125 31.480469 19.3125 31.164062 19.3125 C 31.039062 19.269531 31 19.1875 30.996094 19.089844 C 30.964844 18.5625 30.960938 18.035156 31 17.507812 C 31.003906 17.441406 31.03125 17.386719 31.105469 17.328125 Z M 31.105469 17.328125 "/>
<path style=" stroke:none;fill-rule:nonzero;fill:rgb(9.803922%,30.588236%,65.882355%);fill-opacity:1;" d="M 32.039062 3.351562 C 32.0625 4 32.0625 4.628906 32.0625 5.285156 C 31.773438 5.546875 31.457031 5.46875 31.113281 5.371094 C 31.050781 5.316406 31.011719 5.277344 31.007812 5.222656 C 30.96875 4.613281 30.925781 4 31.058594 3.367188 C 31.390625 3.195312 31.703125 3.167969 32.039062 3.351562 Z M 32.039062 3.351562 "/>
<path style=" stroke:none;fill-rule:nonzero;fill:rgb(69.803923%,26.666668%,69.411767%);fill-opacity:1;" d="M 31.105469 27.328125 C 31.425781 27.3125 31.714844 27.3125 32.035156 27.3125 C 32.0625 27.9375 32.0625 28.566406 32.0625 29.222656 C 31.773438 29.484375 31.457031 29.40625 31.113281 29.308594 C 31.046875 29.253906 31.015625 29.210938 31.007812 29.160156 C 30.953125 28.597656 30.960938 28.039062 31.003906 27.476562 C 31.007812 27.421875 31.042969 27.382812 31.105469 27.328125 Z M 31.105469 27.328125 "/>
<path style=" stroke:none;fill-rule:nonzero;fill:rgb(14.901961%,30.19608%,66.274512%);fill-opacity:1;" d="M 31.105469 5.328125 C 31.425781 5.3125 31.714844 5.3125 32.035156 5.3125 C 32.0625 5.9375 32.0625 6.566406 32.0625 7.222656 C 31.773438 7.25 31.480469 7.25 31.164062 7.25 C 31.039062 7.207031 31 7.125 30.996094 7.027344 C 30.964844 6.519531 30.960938 6.011719 31 5.507812 C 31.003906 5.441406 31.03125 5.386719 31.105469 5.328125 Z M 31.105469 5.328125 "/>
<path style=" stroke:none;fill-rule:nonzero;fill:rgb(5.098039%,30.588236%,65.490198%);fill-opacity:1;" d="M 32.0625 3.347656 C 31.773438 3.375 31.480469 3.375 31.164062 3.375 C 31.039062 3.332031 31 3.25 30.996094 3.152344 C 30.964844 2.664062 30.960938 2.179688 31 1.695312 C 31.003906 1.628906 31.035156 1.574219 31.105469 1.515625 C 31.425781 1.5 31.714844 1.5 32.035156 1.5 C 32.0625 2.105469 32.0625 2.710938 32.0625 3.347656 Z M 32.0625 3.347656 "/>
<path style=" stroke:none;fill-rule:nonzero;fill:rgb(73.725492%,26.274511%,69.411767%);fill-opacity:1;" d="M 31.105469 29.265625 C 31.425781 29.25 31.714844 29.25 32.035156 29.25 C 32.0625 29.773438 32.0625 30.292969 32.0625 30.847656 C 31.773438 30.875 31.480469 30.875 31.164062 30.875 C 31.050781 30.835938 31.007812 30.769531 31 30.683594 C 30.964844 30.25 30.953125 29.816406 31.011719 29.382812 C 31.019531 29.34375 31.050781 29.3125 31.105469 29.265625 Z M 31.105469 29.265625 "/>
<path style=" stroke:none;fill-rule:nonzero;fill:rgb(63.137257%,27.058825%,69.01961%);fill-opacity:1;" d="M 2.128906 26.871094 C 1.773438 26.875 1.445312 26.875 1.085938 26.871094 C 1.4375 26.019531 1.765625 25.144531 2.003906 24.210938 C 2.292969 23.957031 2.609375 24.035156 2.949219 24.105469 C 3.171875 24.269531 3.0625 24.460938 3.035156 24.664062 C 2.96875 24.859375 2.933594 25.039062 2.855469 25.230469 C 2.832031 25.476562 2.71875 25.667969 2.644531 25.898438 C 2.589844 26.171875 2.476562 26.394531 2.355469 26.640625 C 2.316406 26.765625 2.261719 26.84375 2.128906 26.871094 Z M 2.128906 26.871094 "/>
<path style=" stroke:none;fill-rule:nonzero;fill:rgb(56.862748%,27.843139%,68.627453%);fill-opacity:1;" d="M 3.035156 24.164062 C 2.683594 24.183594 2.375 24.1875 2.039062 24.1875 C 2.191406 23.371094 2.371094 22.550781 2.5625 21.710938 C 2.867188 21.535156 3.179688 21.585938 3.511719 21.625 C 3.683594 21.8125 3.640625 22.007812 3.605469 22.199219 C 3.574219 22.371094 3.523438 22.539062 3.472656 22.730469 C 3.421875 23.039062 3.363281 23.320312 3.28125 23.621094 C 3.238281 23.824219 3.238281 24.015625 3.035156 24.164062 Z M 3.035156 24.164062 "/>
<path style=" stroke:none;fill-rule:nonzero;fill:rgb(50.980395%,27.843139%,68.235296%);fill-opacity:1;" d="M 3.535156 21.6875 C 3.210938 21.734375 2.917969 21.800781 2.597656 21.695312 C 2.570312 21.207031 2.726562 20.75 2.773438 20.277344 C 2.800781 20.003906 2.847656 19.734375 2.910156 19.449219 C 3.230469 19.253906 3.53125 19.355469 3.859375 19.429688 C 3.960938 19.507812 4.007812 19.59375 3.996094 19.6875 C 3.914062 20.28125 3.863281 20.875 3.679688 21.476562 C 3.664062 21.582031 3.636719 21.648438 3.535156 21.6875 Z M 3.535156 21.6875 "/>
<path style=" stroke:none;fill-rule:nonzero;fill:rgb(40.000001%,28.627452%,67.843139%);fill-opacity:1;" d="M 3.21875 17.398438 C 3.183594 16.832031 3.296875 16.300781 3.347656 15.761719 C 3.367188 15.558594 3.339844 15.351562 3.414062 15.136719 C 3.75 15.101562 4.066406 15.054688 4.394531 15.203125 C 4.59375 15.515625 4.429688 15.8125 4.429688 16.136719 C 4.394531 16.433594 4.410156 16.710938 4.296875 16.996094 C 4.265625 17.15625 4.277344 17.296875 4.152344 17.425781 C 3.828125 17.539062 3.53125 17.582031 3.21875 17.398438 Z M 3.21875 17.398438 "/>
<path style=" stroke:none;fill-rule:nonzero;fill:rgb(29.803923%,29.019609%,67.058825%);fill-opacity:1;" d="M 3.59375 13.148438 C 3.632812 12.457031 3.691406 11.785156 3.753906 11.089844 C 4.035156 10.820312 4.347656 10.917969 4.679688 10.992188 C 4.929688 11.304688 4.816406 11.625 4.765625 11.972656 C 4.78125 12.402344 4.757812 12.796875 4.621094 13.207031 C 4.265625 13.347656 3.929688 13.445312 3.59375 13.148438 Z M 3.59375 13.148438 "/>
<path style=" stroke:none;fill-rule:nonzero;fill:rgb(45.490196%,28.235295%,68.235296%);fill-opacity:1;" d="M 3.191406 17.402344 C 3.488281 17.375 3.777344 17.375 4.09375 17.375 C 4.199219 17.414062 4.226562 17.476562 4.238281 17.582031 C 4.203125 18.210938 4.171875 18.808594 3.957031 19.410156 C 3.933594 19.445312 3.921875 19.460938 3.886719 19.484375 C 3.570312 19.5 3.273438 19.519531 2.957031 19.4375 C 2.976562 18.761719 3.074219 18.09375 3.191406 17.402344 Z M 3.191406 17.402344 "/>
<path style=" stroke:none;fill-rule:nonzero;fill:rgb(25.098041%,29.411766%,67.058825%);fill-opacity:1;" d="M 4.703125 11.050781 C 4.390625 11.0625 4.105469 11.0625 3.789062 11.0625 C 3.75 10.390625 3.792969 9.71875 3.882812 9.027344 C 4.167969 8.757812 4.480469 8.855469 4.816406 8.933594 C 5.027344 9.191406 4.941406 9.464844 4.9375 9.761719 C 4.910156 10.085938 4.90625 10.382812 4.878906 10.679688 C 4.867188 10.808594 4.84375 10.945312 4.703125 11.050781 Z M 4.703125 11.050781 "/>
<path style=" stroke:none;fill-rule:nonzero;fill:rgb(19.607843%,29.803923%,66.666669%);fill-opacity:1;" d="M 4.835938 8.988281 C 4.519531 9 4.230469 9 3.914062 9 C 3.828125 8.332031 3.984375 7.664062 3.945312 6.96875 C 4.25 6.6875 4.582031 6.792969 4.9375 6.871094 C 5.121094 7.042969 5.066406 7.234375 5.054688 7.449219 C 5.011719 7.796875 5.03125 8.113281 5.019531 8.429688 C 5.011719 8.625 5.003906 8.820312 4.835938 8.988281 Z M 4.835938 8.988281 "/>
<path style=" stroke:none;fill-rule:nonzero;fill:rgb(35.294119%,29.019609%,67.450982%);fill-opacity:1;" d="M 3.570312 13.152344 C 3.871094 13.199219 4.175781 13.191406 4.507812 13.1875 C 4.792969 13.359375 4.601562 13.597656 4.625 13.832031 C 4.59375 14.289062 4.613281 14.722656 4.464844 15.164062 C 4.4375 15.199219 4.421875 15.210938 4.386719 15.234375 C 4.0625 15.214844 3.75 15.339844 3.449219 15.136719 C 3.476562 14.472656 3.523438 13.828125 3.570312 13.152344 Z M 3.570312 13.152344 "/>
<path style=" stroke:none;fill-rule:nonzero;fill:rgb(14.901961%,30.19608%,66.274512%);fill-opacity:1;" d="M 4.949219 6.925781 C 4.617188 6.9375 4.308594 6.9375 3.976562 6.9375 C 4.070312 6.292969 3.921875 5.632812 4.070312 4.964844 C 4.355469 4.695312 4.667969 4.792969 5.003906 4.871094 C 5.210938 5.109375 5.128906 5.367188 5.128906 5.644531 C 5.152344 6.015625 5.074219 6.351562 5.070312 6.691406 C 5.070312 6.773438 5.046875 6.855469 4.949219 6.925781 Z M 4.949219 6.925781 "/>
<path style=" stroke:none;fill-rule:nonzero;fill:rgb(9.803922%,30.588236%,65.882355%);fill-opacity:1;" d="M 5.019531 4.925781 C 4.707031 4.9375 4.417969 4.9375 4.101562 4.9375 C 4.074219 4.320312 4.078125 3.707031 4.101562 3.074219 C 4.433594 2.964844 4.746094 2.917969 5.089844 3.023438 C 5.226562 3.199219 5.199219 3.378906 5.191406 3.585938 C 5.199219 3.804688 5.21875 4 5.1875 4.21875 C 5.15625 4.472656 5.191406 4.710938 5.019531 4.925781 Z M 5.019531 4.925781 "/>
<path style=" stroke:none;fill-rule:nonzero;fill:rgb(5.098039%,30.588236%,65.490198%);fill-opacity:1;" d="M 5.078125 3.046875 C 4.757812 3.117188 4.464844 3.171875 4.144531 3.070312 C 4.125 2.496094 4.125 1.933594 4.132812 1.339844 C 4.429688 1.3125 4.71875 1.3125 5.042969 1.3125 C 5.3125 1.566406 5.175781 1.871094 5.191406 2.183594 C 5.1875 2.453125 5.25 2.699219 5.148438 2.960938 C 5.125 3.003906 5.113281 3.015625 5.078125 3.046875 Z M 5.078125 3.046875 "/>
<path style=" stroke:none;fill-rule:nonzero;fill:rgb(100%,100%,100%);fill-opacity:1;" d="M 31.132812 29.21875 C 31.132812 29.773438 31.128906 30.292969 31.132812 30.84375 C 31.144531 31.054688 31.074219 31.125 30.882812 31.117188 C 30.355469 31.105469 29.824219 31.09375 29.300781 31.121094 C 28.988281 31.136719 28.886719 31.03125 28.929688 30.714844 C 28.816406 30.589844 28.796875 30.460938 28.792969 30.324219 C 28.789062 29.863281 28.773438 29.402344 28.804688 28.910156 C 28.78125 28.253906 28.777344 27.628906 28.804688 26.96875 C 28.78125 26.3125 28.777344 25.6875 28.804688 25.03125 C 28.777344 24.335938 28.777344 23.667969 28.804688 22.96875 C 28.78125 22.292969 28.777344 21.648438 28.804688 20.96875 C 28.78125 20.292969 28.777344 19.648438 28.804688 18.972656 C 28.78125 18.335938 28.777344 17.730469 28.804688 17.09375 C 28.78125 16.480469 28.777344 15.894531 28.804688 15.28125 C 28.777344 14.582031 28.777344 13.917969 28.804688 13.21875 C 28.777344 12.523438 28.777344 11.855469 28.804688 11.15625 C 28.78125 10.480469 28.777344 9.835938 28.804688 9.15625 C 28.777344 8.460938 28.777344 7.792969 28.804688 7.09375 C 28.777344 6.398438 28.777344 5.730469 28.804688 5.03125 C 28.777344 4.355469 28.777344 3.707031 28.804688 3.027344 C 28.777344 2.578125 28.785156 2.15625 28.792969 1.738281 C 28.792969 1.605469 28.78125 1.46875 28.90625 1.335938 C 28.898438 1.078125 28.988281 0.992188 29.238281 1.003906 C 29.726562 1.027344 30.214844 1.011719 30.703125 1.011719 C 31.125 1.011719 31.125 1.011719 31.132812 1.472656 C 31.132812 2.105469 31.128906 2.710938 31.132812 3.34375 C 31.132812 4 31.128906 4.628906 31.132812 5.28125 C 31.132812 5.9375 31.128906 6.566406 31.132812 7.21875 C 31.132812 7.898438 31.128906 8.542969 31.132812 9.21875 C 31.132812 9.917969 31.128906 10.585938 31.132812 11.28125 C 31.132812 11.960938 31.128906 12.605469 31.132812 13.28125 C 31.132812 13.960938 31.128906 14.605469 31.132812 15.28125 C 31.132812 15.960938 31.128906 16.605469 31.132812 17.28125 C 31.132812 17.960938 31.128906 18.605469 31.132812 19.28125 C 31.132812 19.960938 31.128906 20.605469 31.132812 21.28125 C 31.132812 21.960938 31.128906 22.605469 31.132812 23.28125 C 31.132812 23.960938 31.128906 24.605469 31.132812 25.28125 C 31.132812 25.960938 31.128906 26.605469 31.132812 27.28125 C 31.132812 27.9375 31.128906 28.566406 31.132812 29.21875 Z M 31.132812 29.21875 "/>
<path style=" stroke:none;fill-rule:nonzero;fill:rgb(67.450982%,68.235296%,100%);fill-opacity:1;" d="M 5.109375 2.273438 C 5.089844 1.957031 5.085938 1.664062 5.078125 1.34375 C 5.078125 1.304688 5.085938 1.292969 5.101562 1.269531 C 5.167969 1.140625 5.269531 1.125 5.378906 1.125 C 5.460938 1.125 5.542969 1.125 5.628906 1.125 C 12.90625 1.125 20.183594 1.125 27.464844 1.128906 C 27.625 1.128906 27.800781 1.074219 27.964844 1.226562 C 27.988281 1.261719 27.992188 1.269531 28 1.296875 C 28.230469 1.605469 28.152344 1.921875 28.0625 2.261719 C 27.847656 2.417969 27.625 2.398438 27.410156 2.398438 C 25.847656 2.402344 24.285156 2.398438 22.722656 2.398438 C 17.089844 2.398438 11.457031 2.402344 5.824219 2.398438 C 5.589844 2.398438 5.339844 2.457031 5.109375 2.273438 Z M 5.109375 2.273438 "/>
<path style=" stroke:none;fill-rule:nonzero;fill:rgb(65.098041%,67.058825%,99.215686%);fill-opacity:1;" d="M 27.988281 1.226562 C 20.378906 1.25 12.769531 1.25 5.140625 1.253906 C 5.0625 1.078125 5.125 0.996094 5.3125 1.007812 C 5.363281 1.015625 5.414062 1.011719 5.46875 1.011719 C 12.855469 1.011719 20.246094 1.007812 27.636719 1.015625 C 27.765625 1.015625 28.003906 0.890625 27.988281 1.226562 Z M 27.988281 1.226562 "/>
<path style=" stroke:none;fill-rule:nonzero;fill:rgb(5.098039%,30.588236%,65.490198%);fill-opacity:1;" d="M 27.953125 2.273438 C 27.976562 1.957031 27.984375 1.664062 28 1.339844 C 28.292969 1.3125 28.582031 1.3125 28.898438 1.3125 C 28.929688 1.855469 28.929688 2.398438 28.929688 2.96875 C 28.636719 3.242188 28.316406 3.148438 27.972656 3.078125 C 27.925781 3.054688 27.910156 3.042969 27.878906 3.003906 C 27.777344 2.742188 27.804688 2.515625 27.953125 2.273438 Z M 27.953125 2.273438 "/>
<path style=" stroke:none;fill-rule:nonzero;fill:rgb(99.607843%,99.607843%,99.607843%);fill-opacity:1;" d="M 5.128906 29.027344 C 5.132812 28.71875 5.316406 28.730469 5.515625 28.730469 C 11.480469 28.734375 17.449219 28.71875 23.414062 28.75 C 24.453125 28.753906 25.136719 28.34375 25.625 27.460938 C 25.597656 27.328125 25.582031 27.226562 25.648438 27.113281 C 25.90625 26.664062 26.078125 26.175781 26.269531 25.671875 C 26.457031 25.039062 26.625 24.425781 26.796875 23.789062 C 26.929688 23.105469 27.085938 22.453125 27.207031 21.765625 C 27.316406 21.152344 27.402344 20.5625 27.503906 19.945312 C 27.5625 19.449219 27.632812 18.980469 27.703125 18.484375 C 27.722656 18.3125 27.722656 18.164062 27.734375 18.019531 C 27.746094 17.871094 27.757812 17.695312 27.941406 17.6875 C 28.140625 17.679688 28.132812 17.871094 28.140625 18.007812 C 28.15625 18.300781 28.15625 18.589844 28.132812 18.914062 C 28.160156 19.585938 28.160156 20.230469 28.132812 20.90625 C 28.160156 21.582031 28.160156 22.230469 28.132812 22.90625 C 28.160156 23.601562 28.160156 24.269531 28.132812 24.96875 C 28.15625 25.625 28.160156 26.25 28.132812 26.90625 C 28.15625 27.5625 28.160156 28.1875 28.132812 28.847656 C 28.160156 29.339844 28.152344 29.800781 28.144531 30.261719 C 28.144531 30.394531 28.15625 30.535156 28.027344 30.664062 C 27.984375 31.113281 27.984375 31.113281 27.558594 31.113281 C 20.21875 31.113281 12.882812 31.113281 5.542969 31.121094 C 5.238281 31.121094 5.125 31.03125 5.152344 30.714844 C 5.011719 30.496094 5.03125 30.273438 5.042969 30.058594 C 5.054688 29.722656 4.976562 29.378906 5.128906 29.027344 Z M 5.128906 29.027344 "/>
<path style=" stroke:none;fill-rule:nonzero;fill:rgb(73.725492%,26.274511%,69.411767%);fill-opacity:1;" d="M 5.117188 29 C 5.1875 29.542969 5.160156 30.085938 5.148438 30.660156 C 4.84375 30.683594 4.542969 30.679688 4.222656 30.75 C 4.195312 30.1875 4.191406 29.621094 4.195312 29.03125 C 4.496094 29 4.792969 29 5.117188 29 Z M 5.117188 29 "/>
<path style=" stroke:none;fill-rule:nonzero;fill:rgb(73.725492%,26.274511%,69.411767%);fill-opacity:1;" d="M 28.039062 30.6875 C 28.007812 30.101562 28.003906 29.519531 28.003906 28.902344 C 28.289062 28.65625 28.582031 28.691406 28.902344 28.851562 C 28.929688 29.460938 28.929688 30.042969 28.929688 30.660156 C 28.640625 30.6875 28.351562 30.6875 28.039062 30.6875 Z M 28.039062 30.6875 "/>
<path style=" stroke:none;fill-rule:nonzero;fill:rgb(98.823529%,77.64706%,100%);fill-opacity:1;" d="M 24.636719 27.285156 C 24.328125 27.703125 23.9375 27.808594 23.449219 27.804688 C 16.328125 27.796875 9.210938 27.796875 2.089844 27.796875 C 2.015625 27.796875 1.941406 27.792969 1.871094 27.800781 C 1.636719 27.816406 1.617188 27.730469 1.738281 27.558594 C 1.816406 27.445312 1.878906 27.324219 1.960938 27.195312 C 2.152344 27.050781 2.359375 27.039062 2.570312 27.039062 C 3.476562 27.035156 4.382812 27.039062 5.289062 27.039062 C 11.464844 27.039062 17.640625 27.035156 23.816406 27.039062 C 24.070312 27.039062 24.339844 26.984375 24.59375 27.171875 C 24.625 27.214844 24.632812 27.234375 24.636719 27.285156 Z M 24.636719 27.285156 "/>
<path style=" stroke:none;fill-rule:nonzero;fill:rgb(98.431373%,78.039217%,100%);fill-opacity:1;" d="M 24.664062 27.253906 C 24.359375 27.191406 24.078125 27.1875 23.796875 27.1875 C 16.710938 27.1875 9.621094 27.1875 2.535156 27.1875 C 2.371094 27.1875 2.203125 27.183594 2.003906 27.179688 C 2.011719 27.089844 2.050781 27 2.097656 26.894531 C 2.140625 26.800781 2.175781 26.726562 2.230469 26.636719 C 2.359375 26.519531 2.496094 26.484375 2.648438 26.480469 C 2.78125 26.476562 2.917969 26.476562 3.054688 26.476562 C 10.070312 26.476562 17.085938 26.472656 24.101562 26.476562 C 24.359375 26.476562 24.625 26.433594 24.894531 26.570312 C 25.082031 26.859375 25.019531 27.054688 24.664062 27.253906 Z M 24.664062 27.253906 "/>
<path style=" stroke:none;fill-rule:nonzero;fill:rgb(65.882355%,27.450982%,69.411767%);fill-opacity:1;" d="M 24.632812 27.269531 C 24.734375 27.078125 24.835938 26.90625 24.941406 26.710938 C 24.851562 26.371094 25.074219 26.144531 25.1875 25.863281 C 25.230469 25.710938 25.273438 25.589844 25.441406 25.539062 C 25.777344 25.496094 26.097656 25.359375 26.378906 25.664062 C 26.230469 26.300781 25.964844 26.863281 25.648438 27.425781 C 25.324219 27.300781 24.984375 27.441406 24.652344 27.324219 C 24.628906 27.3125 24.632812 27.285156 24.632812 27.269531 Z M 24.632812 27.269531 "/>
<path style=" stroke:none;fill-rule:nonzero;fill:rgb(97.647059%,77.64706%,100%);fill-opacity:1;" d="M 25.289062 25.914062 C 25.199219 26.179688 25.089844 26.421875 24.960938 26.675781 C 24.742188 26.625 24.535156 26.625 24.328125 26.625 C 16.984375 26.625 9.644531 26.625 2.273438 26.625 C 2.328125 26.386719 2.414062 26.152344 2.507812 25.898438 C 2.640625 25.765625 2.789062 25.730469 2.949219 25.726562 C 3.074219 25.726562 3.199219 25.726562 3.324219 25.726562 C 10.367188 25.726562 17.40625 25.726562 24.449219 25.726562 C 24.613281 25.726562 24.78125 25.722656 24.949219 25.734375 C 25.074219 25.742188 25.199219 25.761719 25.289062 25.914062 Z M 25.289062 25.914062 "/>
<path style=" stroke:none;fill-rule:nonzero;fill:rgb(96.470588%,77.254903%,100%);fill-opacity:1;" d="M 25.316406 25.917969 C 25.125 25.878906 24.941406 25.875 24.753906 25.875 C 17.359375 25.875 9.96875 25.875 2.546875 25.875 C 2.582031 25.675781 2.644531 25.476562 2.71875 25.261719 C 2.835938 25.140625 2.964844 25.109375 3.101562 25.105469 C 3.269531 25.101562 3.4375 25.101562 3.601562 25.101562 C 10.625 25.101562 17.648438 25.097656 24.667969 25.101562 C 24.929688 25.101562 25.191406 25.074219 25.472656 25.167969 C 25.628906 25.320312 25.605469 25.453125 25.457031 25.601562 C 25.347656 25.695312 25.382812 25.816406 25.316406 25.917969 Z M 25.316406 25.917969 "/>
<path style=" stroke:none;fill-rule:nonzero;fill:rgb(95.686275%,77.254903%,100%);fill-opacity:1;" d="M 25.539062 25.253906 C 18.113281 25.25 10.71875 25.25 3.324219 25.25 C 3.148438 25.25 2.972656 25.246094 2.765625 25.246094 C 2.777344 25.074219 2.824219 24.902344 2.878906 24.710938 C 3.035156 24.546875 3.222656 24.601562 3.394531 24.601562 C 9.1875 24.601562 14.976562 24.601562 20.769531 24.601562 C 22.195312 24.601562 23.625 24.597656 25.050781 24.601562 C 25.238281 24.601562 25.425781 24.585938 25.636719 24.664062 C 25.832031 24.917969 25.808594 25.039062 25.539062 25.253906 Z M 25.539062 25.253906 "/>
<path style=" stroke:none;fill-rule:nonzero;fill:rgb(95.294118%,76.862746%,100%);fill-opacity:1;" d="M 25.71875 24.738281 C 18.289062 24.75 10.890625 24.75 3.492188 24.75 C 3.304688 24.75 3.117188 24.765625 2.910156 24.695312 C 2.921875 24.535156 2.957031 24.382812 2.992188 24.207031 C 2.992188 24.183594 3 24.1875 3.007812 24.191406 C 3.160156 24.046875 3.347656 24.101562 3.519531 24.101562 C 7.515625 24.097656 11.511719 24.101562 15.511719 24.101562 C 18.695312 24.101562 21.878906 24.097656 25.066406 24.101562 C 25.292969 24.101562 25.523438 24.082031 25.777344 24.160156 C 25.996094 24.378906 25.929688 24.558594 25.71875 24.738281 Z M 25.71875 24.738281 "/>
<path style=" stroke:none;fill-rule:nonzero;fill:rgb(92.54902%,76.078433%,100%);fill-opacity:1;" d="M 3.507812 21.714844 C 3.523438 21.640625 3.542969 21.589844 3.566406 21.519531 C 3.636719 21.410156 3.730469 21.363281 3.839844 21.363281 C 4.917969 21.355469 6 21.3125 7.101562 21.394531 C 7.253906 21.441406 7.304688 21.53125 7.320312 21.652344 C 7.339844 21.800781 7.367188 21.945312 7.550781 21.964844 C 7.742188 21.988281 7.921875 21.980469 8.015625 21.769531 C 8.035156 21.730469 8.070312 21.707031 8.128906 21.671875 C 8.742188 21.550781 9.332031 21.589844 9.949219 21.640625 C 10.121094 21.605469 10.234375 21.679688 10.355469 21.742188 C 10.949219 22.0625 11.519531 22.015625 12.074219 21.632812 C 12.230469 21.527344 12.351562 21.347656 12.601562 21.359375 C 13.40625 21.355469 14.1875 21.3125 14.992188 21.398438 C 15.175781 21.460938 15.191406 21.597656 15.207031 21.734375 C 15.226562 21.875 15.300781 21.964844 15.449219 21.972656 C 16.136719 22.011719 16.796875 21.949219 17.390625 21.558594 C 17.710938 21.347656 17.933594 21.054688 18.128906 20.707031 C 18.1875 20.542969 18.238281 20.402344 18.425781 20.347656 C 18.753906 20.269531 19.054688 20.265625 19.378906 20.339844 C 19.417969 20.359375 19.433594 20.367188 19.46875 20.390625 C 19.554688 20.546875 19.589844 20.699219 19.640625 20.847656 C 20.058594 21.996094 21.394531 22.316406 22.285156 21.472656 C 22.375 21.390625 22.4375 21.273438 22.613281 21.277344 C 23.046875 21.214844 23.457031 21.191406 23.890625 21.285156 C 24.082031 21.367188 24.074219 21.523438 24.082031 21.664062 C 24.09375 21.863281 24.183594 21.96875 24.394531 21.972656 C 24.613281 21.976562 24.71875 21.878906 24.730469 21.660156 C 24.734375 21.535156 24.734375 21.40625 24.871094 21.304688 C 25.386719 21.191406 25.882812 21.191406 26.402344 21.296875 C 26.574219 21.414062 26.546875 21.554688 26.507812 21.726562 C 26.488281 22.027344 26.453125 22.292969 26.398438 22.554688 C 26.371094 22.679688 26.335938 22.796875 26.195312 22.882812 C 25.855469 22.941406 25.542969 22.898438 25.230469 22.898438 C 18.183594 22.902344 11.136719 22.902344 4.089844 22.898438 C 3.847656 22.898438 3.589844 22.957031 3.34375 22.773438 C 3.386719 22.414062 3.445312 22.078125 3.507812 21.714844 Z M 3.507812 21.714844 "/>
<path style=" stroke:none;fill-rule:nonzero;fill:rgb(93.725491%,76.47059%,100%);fill-opacity:1;" d="M 3.316406 22.773438 C 10.730469 22.75 18.132812 22.75 25.539062 22.75 C 25.738281 22.75 25.933594 22.757812 26.152344 22.808594 C 26.34375 23.15625 26.246094 23.457031 26 23.75 C 25.695312 23.796875 25.414062 23.773438 25.132812 23.773438 C 18.054688 23.773438 10.976562 23.777344 3.902344 23.773438 C 3.660156 23.773438 3.402344 23.832031 3.15625 23.648438 C 3.195312 23.351562 3.253906 23.074219 3.316406 22.773438 Z M 3.316406 22.773438 "/>
<path style=" stroke:none;fill-rule:nonzero;fill:rgb(94.509804%,76.862746%,100%);fill-opacity:1;" d="M 3.128906 23.648438 C 10.550781 23.625 17.964844 23.625 25.378906 23.625 C 25.566406 23.625 25.757812 23.609375 25.960938 23.679688 C 26.019531 23.699219 26.042969 23.722656 26.066406 23.777344 C 26.074219 23.976562 26.082031 24.152344 25.871094 24.253906 C 25.65625 24.253906 25.46875 24.25 25.28125 24.25 C 18.0625 24.25 10.839844 24.25 3.617188 24.25 C 3.433594 24.25 3.242188 24.265625 3.039062 24.195312 C 3.050781 24.019531 3.085938 23.847656 3.128906 23.648438 Z M 3.128906 23.648438 "/>
<path style=" stroke:none;fill-rule:nonzero;fill:rgb(90.588236%,75.294119%,100%);fill-opacity:1;" d="M 7.183594 21.488281 C 5.980469 21.5 4.804688 21.5 3.601562 21.5 C 3.671875 20.851562 3.769531 20.199219 3.867188 19.523438 C 3.863281 19.496094 3.875 19.5 3.878906 19.5 C 3.957031 19.378906 4.058594 19.300781 4.210938 19.300781 C 5.125 19.28125 6.042969 19.277344 6.957031 19.304688 C 7.03125 19.304688 7.101562 19.335938 7.195312 19.375 C 7.300781 19.457031 7.320312 19.546875 7.324219 19.640625 C 7.335938 20.175781 7.367188 20.710938 7.296875 21.277344 C 7.28125 21.371094 7.261719 21.429688 7.183594 21.488281 Z M 7.183594 21.488281 "/>
<path style=" stroke:none;fill-rule:nonzero;fill:rgb(84.313726%,73.333335%,100%);fill-opacity:1;" d="M 4.3125 16.210938 C 4.316406 15.890625 4.339844 15.59375 4.363281 15.273438 C 4.359375 15.246094 4.371094 15.25 4.375 15.25 C 4.503906 15.082031 4.695312 15.105469 4.867188 15.105469 C 5.65625 15.09375 6.445312 15.097656 7.234375 15.101562 C 9.429688 15.105469 11.621094 15.085938 13.816406 15.113281 C 13.878906 15.113281 13.9375 15.109375 14.019531 15.054688 C 14.1875 14.96875 14.332031 15.035156 14.472656 15.035156 C 15.484375 15.035156 16.496094 15.042969 17.539062 15.03125 C 17.816406 15.136719 18.0625 15.152344 18.328125 15.109375 C 18.542969 15.078125 18.761719 15.101562 18.980469 15.101562 C 21.496094 15.101562 24.007812 15.101562 26.523438 15.101562 C 26.730469 15.101562 26.9375 15.089844 27.171875 15.148438 C 27.21875 15.167969 27.238281 15.179688 27.277344 15.207031 C 27.453125 15.585938 27.363281 15.910156 27.152344 16.242188 C 26.960938 16.335938 26.785156 16.335938 26.605469 16.335938 C 19.351562 16.339844 12.097656 16.339844 4.839844 16.335938 C 4.667969 16.335938 4.484375 16.367188 4.3125 16.210938 Z M 4.3125 16.210938 "/>
<path style=" stroke:none;fill-rule:nonzero;fill:rgb(85.490197%,73.725492%,100%);fill-opacity:1;" d="M 4.28125 16.210938 C 11.878906 16.1875 19.46875 16.1875 27.085938 16.1875 C 27.390625 16.453125 27.214844 16.730469 27.109375 17.027344 C 26.867188 17.175781 26.621094 17.148438 26.382812 17.148438 C 23.492188 17.152344 20.597656 17.148438 17.707031 17.148438 C 13.429688 17.148438 9.152344 17.152344 4.875 17.148438 C 4.652344 17.148438 4.417969 17.199219 4.195312 17.023438 C 4.210938 16.742188 4.242188 16.488281 4.28125 16.210938 Z M 4.28125 16.210938 "/>
<path style=" stroke:none;fill-rule:nonzero;fill:rgb(85.882354%,73.725492%,99.607843%);fill-opacity:1;" d="M 4.160156 17.011719 C 11.785156 17 19.394531 17 27.03125 17 C 27.074219 17.011719 27.089844 17.023438 27.121094 17.0625 C 27.140625 17.378906 27.234375 17.6875 26.96875 17.949219 C 26.285156 18.070312 25.625 18.039062 24.941406 17.972656 C 24.785156 17.921875 24.753906 17.804688 24.710938 17.667969 C 24.691406 17.625 24.675781 17.605469 24.636719 17.574219 C 24.300781 17.417969 24.105469 17.605469 23.902344 17.839844 C 23.695312 17.914062 23.507812 17.898438 23.320312 17.898438 C 21.46875 17.894531 19.621094 17.914062 17.769531 17.886719 C 17.734375 17.886719 17.707031 17.898438 17.652344 17.917969 C 17.511719 17.988281 17.402344 17.957031 17.300781 17.898438 C 16.59375 17.460938 15.832031 17.550781 15.042969 17.664062 C 14.859375 17.710938 14.703125 17.710938 14.550781 17.710938 C 13.035156 17.714844 11.519531 17.714844 10.007812 17.710938 C 9.859375 17.710938 9.714844 17.710938 9.542969 17.671875 C 9.273438 17.597656 9.027344 17.585938 8.777344 17.585938 C 7.96875 17.589844 7.160156 17.585938 6.351562 17.585938 C 6.164062 17.585938 5.980469 17.605469 5.785156 17.710938 C 5.292969 17.816406 4.832031 17.773438 4.367188 17.757812 C 4.292969 17.753906 4.226562 17.730469 4.152344 17.648438 C 4.132812 17.558594 4.128906 17.492188 4.125 17.398438 C 4.128906 17.257812 4.136719 17.144531 4.160156 17.011719 Z M 4.160156 17.011719 "/>
<path style=" stroke:none;fill-rule:nonzero;fill:rgb(78.431374%,71.764708%,100%);fill-opacity:1;" d="M 4.679688 11.089844 C 4.714844 10.660156 4.75 10.261719 4.792969 9.835938 C 4.917969 9.679688 5.074219 9.667969 5.230469 9.667969 C 7.105469 9.660156 8.980469 9.660156 10.855469 9.667969 C 10.980469 9.667969 11.105469 9.679688 11.25 9.746094 C 11.394531 9.859375 11.390625 10 11.390625 10.132812 C 11.402344 10.523438 11.410156 10.914062 11.382812 11.335938 C 11.378906 11.578125 11.425781 11.792969 11.308594 12.019531 C 11.148438 12.132812 10.996094 12.144531 10.839844 12.144531 C 8.914062 12.152344 6.992188 12.152344 5.066406 12.144531 C 4.933594 12.144531 4.792969 12.15625 4.664062 12.023438 C 4.660156 11.707031 4.671875 11.414062 4.679688 11.089844 Z M 4.679688 11.089844 "/>
<path style=" stroke:none;fill-rule:nonzero;fill:rgb(81.176472%,72.549021%,100%);fill-opacity:1;" d="M 4.640625 12.027344 C 6.820312 12 8.992188 12 11.191406 12 C 11.382812 12.054688 11.382812 12.195312 11.390625 12.328125 C 11.402344 12.675781 11.410156 13.023438 11.378906 13.398438 C 11.371094 13.558594 11.398438 13.6875 11.308594 13.832031 C 11.089844 13.980469 10.867188 13.960938 10.652344 13.960938 C 8.828125 13.964844 7.007812 13.964844 5.1875 13.957031 C 4.976562 13.957031 4.753906 14.074219 4.527344 13.898438 C 4.519531 13.664062 4.53125 13.449219 4.539062 13.210938 C 4.570312 12.808594 4.601562 12.433594 4.640625 12.027344 Z M 4.640625 12.027344 "/>
<path style=" stroke:none;fill-rule:nonzero;fill:rgb(87.058824%,73.725492%,99.215686%);fill-opacity:1;" d="M 4.125 17.648438 C 4.648438 17.625 5.167969 17.625 5.710938 17.625 C 5.859375 17.667969 5.878906 17.773438 5.890625 17.875 C 5.921875 18.132812 6.078125 18.222656 6.320312 18.222656 C 6.515625 18.222656 6.710938 18.21875 6.910156 18.234375 C 7.226562 18.257812 7.304688 18.335938 7.328125 18.652344 C 7.339844 18.820312 7.332031 18.984375 7.304688 19.179688 C 7.304688 19.292969 7.277344 19.363281 7.183594 19.425781 C 6.234375 19.4375 5.3125 19.4375 4.394531 19.4375 C 4.238281 19.4375 4.082031 19.433594 3.910156 19.496094 C 3.960938 18.894531 4.039062 18.285156 4.125 17.648438 Z M 4.125 17.648438 "/>
<path style=" stroke:none;fill-rule:nonzero;fill:rgb(75.294119%,70.19608%,99.607843%);fill-opacity:1;" d="M 11.246094 9.800781 C 9.101562 9.8125 6.980469 9.8125 4.832031 9.8125 C 4.808594 9.558594 4.8125 9.308594 4.8125 9.027344 C 4.839844 8.515625 4.875 8.027344 4.917969 7.519531 C 5.101562 7.3125 5.328125 7.351562 5.542969 7.351562 C 7.894531 7.347656 10.246094 7.351562 12.597656 7.351562 C 12.886719 7.351562 13.179688 7.34375 13.472656 7.355469 C 13.605469 7.363281 13.746094 7.355469 13.875 7.488281 C 14.007812 7.648438 13.964844 7.789062 13.878906 7.953125 C 13.738281 8.101562 13.574219 8.078125 13.421875 8.082031 C 12.902344 8.09375 12.378906 8.082031 11.859375 8.089844 C 11.484375 8.09375 11.410156 8.175781 11.402344 8.554688 C 11.390625 8.875 11.417969 9.199219 11.367188 9.550781 C 11.367188 9.664062 11.34375 9.734375 11.246094 9.800781 Z M 11.246094 9.800781 "/>
<path style=" stroke:none;fill-rule:nonzero;fill:rgb(72.941178%,69.803923%,100%);fill-opacity:1;" d="M 13.890625 7.558594 C 13.683594 7.5 13.5 7.5 13.308594 7.5 C 10.535156 7.5 7.761719 7.5 4.957031 7.496094 C 4.925781 7.328125 4.925781 7.160156 4.925781 6.964844 C 4.945312 6.539062 4.96875 6.140625 4.996094 5.714844 C 5.128906 5.519531 5.316406 5.542969 5.488281 5.542969 C 6.207031 5.53125 6.925781 5.539062 7.640625 5.539062 C 9.640625 5.539062 11.636719 5.535156 13.632812 5.539062 C 13.851562 5.539062 14.070312 5.527344 14.3125 5.582031 C 14.488281 5.683594 14.503906 5.816406 14.460938 5.96875 C 14.402344 6.195312 14.359375 6.425781 14.261719 6.671875 C 14.15625 6.988281 14.199219 7.335938 13.890625 7.558594 Z M 13.890625 7.558594 "/>
<path style=" stroke:none;fill-rule:nonzero;fill:rgb(83.137256%,72.941178%,100%);fill-opacity:1;" d="M 4.5 13.902344 C 5.519531 13.746094 6.535156 13.828125 7.550781 13.816406 C 8.757812 13.800781 9.960938 13.8125 11.191406 13.8125 C 11.367188 13.839844 11.382812 13.957031 11.390625 14.070312 C 11.40625 14.339844 11.5625 14.417969 11.804688 14.414062 C 12.1875 14.414062 12.570312 14.390625 12.953125 14.425781 C 13.40625 14.464844 13.789062 14.675781 14.074219 15.066406 C 13.988281 15.3125 13.796875 15.246094 13.644531 15.246094 C 10.9375 15.25 8.234375 15.25 5.53125 15.25 C 5.167969 15.25 4.804688 15.25 4.410156 15.253906 C 4.378906 14.808594 4.4375 14.367188 4.5 13.902344 Z M 4.5 13.902344 "/>
<path style=" stroke:none;fill-rule:nonzero;fill:rgb(70.588237%,69.01961%,100%);fill-opacity:1;" d="M 14.386719 5.6875 C 11.261719 5.6875 8.160156 5.6875 5.03125 5.6875 C 5.003906 5.457031 5 5.226562 4.996094 4.964844 C 5.007812 4.722656 5.023438 4.511719 5.042969 4.273438 C 5.140625 4.148438 5.257812 4.113281 5.386719 4.109375 C 5.523438 4.101562 5.65625 4.101562 5.792969 4.101562 C 12.945312 4.101562 20.097656 4.097656 27.25 4.101562 C 27.46875 4.101562 27.6875 4.078125 27.925781 4.179688 C 28.152344 4.410156 28.070312 4.667969 28.050781 4.949219 C 28.023438 5.101562 28.023438 5.234375 27.910156 5.355469 C 27.753906 5.445312 27.609375 5.457031 27.460938 5.460938 C 26.109375 5.464844 24.757812 5.464844 23.40625 5.457031 C 23.300781 5.457031 23.199219 5.453125 23.070312 5.414062 C 22.902344 5.355469 22.867188 5.238281 22.863281 5.109375 C 22.851562 4.898438 22.816406 4.714844 22.539062 4.714844 C 22.269531 4.710938 22.210938 4.871094 22.203125 5.09375 C 22.199219 5.199219 22.179688 5.300781 22.0625 5.382812 C 21.351562 5.515625 20.660156 5.476562 19.941406 5.410156 C 19.742188 5.339844 19.738281 5.1875 19.730469 5.042969 C 19.722656 4.832031 19.632812 4.714844 19.40625 4.714844 C 19.179688 4.714844 19.089844 4.828125 19.082031 5.039062 C 19.078125 5.152344 19.074219 5.269531 18.957031 5.371094 C 18.78125 5.457031 18.617188 5.460938 18.449219 5.460938 C 17.820312 5.460938 17.191406 5.464844 16.539062 5.46875 C 16.390625 5.554688 16.273438 5.519531 16.164062 5.449219 C 15.828125 5.238281 15.453125 5.160156 15.070312 5.101562 C 14.832031 5.0625 14.664062 5.132812 14.601562 5.386719 C 14.574219 5.503906 14.558594 5.640625 14.386719 5.6875 Z M 14.386719 5.6875 "/>
<path style=" stroke:none;fill-rule:nonzero;fill:rgb(69.803923%,68.627453%,100%);fill-opacity:1;" d="M 27.949219 4.234375 C 20.316406 4.25 12.714844 4.25 5.082031 4.25 C 5.054688 4.058594 5.054688 3.871094 5.0625 3.652344 C 5.148438 3.511719 5.269531 3.488281 5.398438 3.484375 C 5.554688 3.476562 5.710938 3.476562 5.867188 3.476562 C 10.484375 3.476562 15.101562 3.476562 19.722656 3.476562 C 19.941406 3.476562 20.160156 3.464844 20.402344 3.515625 C 20.496094 3.542969 20.554688 3.578125 20.609375 3.628906 C 20.859375 3.859375 21.09375 3.851562 21.339844 3.609375 C 21.371094 3.582031 21.40625 3.558594 21.46875 3.535156 C 21.664062 3.464844 21.84375 3.476562 22.019531 3.476562 C 23.792969 3.472656 25.570312 3.472656 27.347656 3.476562 C 27.542969 3.476562 27.742188 3.460938 27.953125 3.570312 C 28.109375 3.800781 28.113281 4.007812 27.949219 4.234375 Z M 27.949219 4.234375 "/>
<path style=" stroke:none;fill-rule:nonzero;fill:rgb(69.01961%,68.627453%,100%);fill-opacity:1;" d="M 20.507812 3.609375 C 15.363281 3.625 10.242188 3.625 5.097656 3.625 C 5.066406 3.457031 5.0625 3.285156 5.054688 3.085938 C 5.050781 3.058594 5.0625 3.0625 5.066406 3.0625 C 5.171875 2.863281 5.339844 2.785156 5.554688 2.792969 C 5.640625 2.796875 5.722656 2.789062 5.804688 2.789062 C 10.492188 2.785156 15.175781 2.785156 19.863281 2.789062 C 20.085938 2.789062 20.324219 2.75 20.542969 2.941406 C 20.640625 3.179688 20.691406 3.390625 20.507812 3.609375 Z M 20.507812 3.609375 "/>
<path style=" stroke:none;fill-rule:nonzero;fill:rgb(67.843139%,68.235296%,100%);fill-opacity:1;" d="M 20.535156 3.027344 C 20.332031 2.949219 20.148438 2.9375 19.957031 2.9375 C 15.214844 2.9375 10.46875 2.9375 5.722656 2.933594 C 5.511719 2.933594 5.308594 2.957031 5.09375 3.058594 C 5.074219 2.8125 5.078125 2.558594 5.085938 2.277344 C 12.695312 2.25 20.304688 2.25 27.9375 2.25 C 27.960938 2.460938 27.960938 2.675781 27.949219 2.910156 C 27.785156 3.125 27.5625 3.082031 27.359375 3.085938 C 25.632812 3.089844 23.902344 3.085938 22.175781 3.085938 C 21.957031 3.089844 21.738281 3.082031 21.488281 3.109375 C 21.15625 3.125 20.84375 3.226562 20.535156 3.027344 Z M 20.535156 3.027344 "/>
<path style=" stroke:none;fill-rule:nonzero;fill:rgb(35.294119%,29.019609%,67.450982%);fill-opacity:1;" d="M 28.90625 13.164062 C 28.929688 13.855469 28.929688 14.523438 28.929688 15.21875 C 28.898438 15.28125 28.875 15.328125 28.839844 15.332031 C 28.324219 15.414062 27.8125 15.480469 27.289062 15.269531 C 27.269531 15.242188 27.257812 15.246094 27.25 15.25 C 27.082031 14.90625 27.175781 14.558594 27.234375 14.179688 C 27.226562 13.90625 27.222656 13.65625 27.238281 13.410156 C 27.246094 13.296875 27.269531 13.1875 27.378906 13.085938 C 27.902344 13.035156 28.398438 12.957031 28.90625 13.164062 Z M 28.90625 13.164062 "/>
<path style=" stroke:none;fill-rule:nonzero;fill:rgb(40.000001%,28.627452%,67.843139%);fill-opacity:1;" d="M 27.261719 15.269531 C 27.800781 15.246094 28.335938 15.246094 28.898438 15.25 C 28.929688 15.835938 28.929688 16.417969 28.929688 17.03125 C 28.867188 17.140625 28.789062 17.1875 28.6875 17.195312 C 28.21875 17.21875 27.753906 17.226562 27.285156 17.191406 C 27.21875 17.183594 27.164062 17.15625 27.101562 17.085938 C 27.078125 17.050781 27.074219 17.039062 27.066406 17.015625 C 27.027344 16.742188 27.183594 16.5 27.121094 16.214844 C 27.191406 15.894531 27.238281 15.597656 27.261719 15.269531 Z M 27.261719 15.269531 "/>
<path style=" stroke:none;fill-rule:nonzero;fill:rgb(44.313726%,28.235295%,67.843139%);fill-opacity:1;" d="M 27.074219 17.085938 C 27.675781 17.0625 28.273438 17.0625 28.898438 17.0625 C 28.929688 17.667969 28.929688 18.273438 28.929688 18.90625 C 28.644531 19.160156 28.351562 19.121094 28.03125 18.960938 C 28.007812 18.539062 28.007812 18.136719 28.007812 17.738281 C 27.835938 17.960938 27.917969 18.222656 27.835938 18.480469 C 27.550781 18.71875 27.25 18.660156 26.921875 18.5625 C 26.769531 18.335938 26.753906 18.128906 26.933594 17.902344 C 27.0625 17.632812 26.925781 17.355469 27.074219 17.085938 Z M 27.074219 17.085938 "/>
<path style=" stroke:none;fill-rule:nonzero;fill:rgb(29.803923%,29.019609%,67.058825%);fill-opacity:1;" d="M 28.929688 13.15625 C 28.449219 13.164062 27.972656 13.242188 27.476562 13.128906 C 27.414062 13.109375 27.386719 13.085938 27.359375 13.027344 C 27.238281 12.5625 27.367188 12.136719 27.429688 11.683594 C 27.441406 11.453125 27.363281 11.238281 27.574219 11.0625 C 28.03125 10.964844 28.460938 10.898438 28.902344 11.101562 C 28.929688 11.792969 28.929688 12.460938 28.929688 13.15625 Z M 28.929688 13.15625 "/>
<path style=" stroke:none;fill-rule:nonzero;fill:rgb(25.098041%,29.411766%,67.058825%);fill-opacity:1;" d="M 28.929688 11.09375 C 28.507812 11.125 28.089844 11.125 27.640625 11.121094 C 27.410156 10.941406 27.496094 10.703125 27.480469 10.488281 C 27.46875 10.3125 27.484375 10.136719 27.527344 9.9375 C 27.5625 9.644531 27.492188 9.375 27.632812 9.097656 C 28.0625 8.9375 28.472656 8.910156 28.902344 9.101562 C 28.929688 9.773438 28.929688 10.417969 28.929688 11.09375 Z M 28.929688 11.09375 "/>
<path style=" stroke:none;fill-rule:nonzero;fill:rgb(19.607843%,29.803923%,66.666669%);fill-opacity:1;" d="M 28.929688 9.09375 C 28.542969 9.125 28.15625 9.125 27.746094 9.125 C 27.550781 9.074219 27.558594 8.929688 27.550781 8.796875 C 27.539062 8.589844 27.605469 8.390625 27.621094 8.15625 C 27.65625 7.765625 27.621094 7.402344 27.761719 7.03125 C 28.152344 6.882812 28.519531 6.851562 28.902344 7.039062 C 28.929688 7.730469 28.929688 8.398438 28.929688 9.09375 Z M 28.929688 9.09375 "/>
<path style=" stroke:none;fill-rule:nonzero;fill:rgb(14.901961%,30.19608%,66.274512%);fill-opacity:1;" d="M 28.929688 7.03125 C 28.578125 7.0625 28.230469 7.0625 27.855469 7.0625 C 27.652344 6.984375 27.6875 6.832031 27.691406 6.660156 C 27.71875 6.320312 27.726562 6.011719 27.730469 5.703125 C 27.734375 5.578125 27.730469 5.449219 27.851562 5.335938 C 27.882812 5.222656 27.894531 5.128906 27.914062 5.015625 C 28.234375 4.789062 28.554688 4.804688 28.902344 4.976562 C 28.929688 5.667969 28.929688 6.335938 28.929688 7.03125 Z M 28.929688 7.03125 "/>
<path style=" stroke:none;fill-rule:nonzero;fill:rgb(9.803922%,30.588236%,65.882355%);fill-opacity:1;" d="M 28.929688 4.96875 C 28.609375 5 28.296875 4.996094 27.953125 4.996094 C 27.925781 4.765625 27.925781 4.535156 27.925781 4.277344 C 27.925781 4.0625 27.933594 3.871094 27.933594 3.652344 C 27.765625 3.429688 27.75 3.230469 27.941406 3.011719 C 28.269531 3 28.570312 3 28.898438 3 C 28.929688 3.648438 28.929688 4.292969 28.929688 4.96875 Z M 28.929688 4.96875 "/>
<path style=" stroke:none;fill-rule:nonzero;fill:rgb(59.215689%,27.450982%,68.627453%);fill-opacity:1;" d="M 28.03125 25.023438 C 28.007812 24.332031 28.003906 23.664062 28.003906 22.964844 C 28.289062 22.71875 28.582031 22.753906 28.902344 22.914062 C 28.929688 23.605469 28.929688 24.273438 28.929688 24.972656 C 28.644531 25.222656 28.351562 25.183594 28.03125 25.023438 Z M 28.03125 25.023438 "/>
<path style=" stroke:none;fill-rule:nonzero;fill:rgb(54.11765%,27.843139%,68.235296%);fill-opacity:1;" d="M 28.929688 22.90625 C 28.640625 22.9375 28.351562 22.9375 28.039062 22.9375 C 28.007812 22.289062 28.003906 21.640625 28.003906 20.964844 C 28.289062 20.71875 28.582031 20.753906 28.902344 20.914062 C 28.929688 21.585938 28.929688 22.230469 28.929688 22.90625 Z M 28.929688 22.90625 "/>
<path style=" stroke:none;fill-rule:nonzero;fill:rgb(48.627451%,28.235295%,68.235296%);fill-opacity:1;" d="M 28.929688 20.90625 C 28.640625 20.9375 28.351562 20.9375 28.039062 20.9375 C 28.007812 20.289062 28.003906 19.640625 28.003906 18.964844 C 28.296875 18.9375 28.582031 18.9375 28.898438 18.9375 C 28.929688 19.585938 28.929688 20.230469 28.929688 20.90625 Z M 28.929688 20.90625 "/>
<path style=" stroke:none;fill-rule:nonzero;fill:rgb(65.098041%,26.666668%,69.01961%);fill-opacity:1;" d="M 28.003906 25.027344 C 28.296875 25 28.582031 25 28.898438 25 C 28.929688 25.625 28.929688 26.253906 28.929688 26.910156 C 28.644531 27.160156 28.351562 27.121094 28.03125 26.960938 C 28.007812 26.3125 28.003906 25.683594 28.003906 25.027344 Z M 28.003906 25.027344 "/>
<path style=" stroke:none;fill-rule:nonzero;fill:rgb(69.803923%,26.666668%,69.411767%);fill-opacity:1;" d="M 28.003906 26.964844 C 28.296875 26.9375 28.582031 26.9375 28.898438 26.9375 C 28.929688 27.5625 28.929688 28.191406 28.929688 28.847656 C 28.636719 28.875 28.351562 28.875 28.039062 28.875 C 28.007812 28.25 28.003906 27.621094 28.003906 26.964844 Z M 28.003906 26.964844 "/>
<path style=" stroke:none;fill-rule:nonzero;fill:rgb(69.01961%,68.627453%,100%);fill-opacity:1;" d="M 27.964844 2.984375 C 27.960938 3.1875 27.949219 3.378906 27.933594 3.597656 C 25.789062 3.625 23.644531 3.625 21.472656 3.625 C 21.238281 3.457031 21.28125 3.261719 21.398438 3.035156 C 21.570312 2.929688 21.738281 2.9375 21.90625 2.9375 C 23.898438 2.9375 25.890625 2.9375 27.914062 2.9375 C 27.945312 2.949219 27.953125 2.957031 27.964844 2.984375 Z M 27.964844 2.984375 "/>
<path style=" stroke:none;fill-rule:nonzero;fill:rgb(56.862748%,27.843139%,68.627453%);fill-opacity:1;" d="M 26.003906 23.835938 C 25.988281 23.78125 25.988281 23.753906 25.988281 23.707031 C 26.050781 23.414062 26.117188 23.136719 26.179688 22.835938 C 26.25 22.476562 26.320312 22.136719 26.394531 21.773438 C 26.691406 21.519531 26.996094 21.570312 27.320312 21.730469 C 27.246094 22.433594 27.09375 23.097656 26.929688 23.789062 C 26.632812 24.027344 26.332031 24 26.003906 23.835938 Z M 26.003906 23.835938 "/>
<path style=" stroke:none;fill-rule:nonzero;fill:rgb(61.56863%,28.235295%,69.411767%);fill-opacity:1;" d="M 25.976562 23.828125 C 26.28125 23.8125 26.574219 23.8125 26.894531 23.8125 C 26.792969 24.4375 26.617188 25.050781 26.402344 25.675781 C 26.097656 25.570312 25.789062 25.648438 25.464844 25.625 C 25.457031 25.515625 25.480469 25.40625 25.503906 25.277344 C 25.589844 25.109375 25.65625 24.957031 25.691406 24.773438 C 25.738281 24.601562 25.785156 24.453125 25.839844 24.28125 C 25.882812 24.121094 25.921875 23.984375 25.976562 23.828125 Z M 25.976562 23.828125 "/>
<path style=" stroke:none;fill-rule:nonzero;fill:rgb(51.372552%,28.627452%,68.627453%);fill-opacity:1;" d="M 27.347656 21.734375 C 27.046875 21.753906 26.75 21.753906 26.429688 21.75 C 26.332031 21.628906 26.449219 21.535156 26.445312 21.398438 C 26.425781 21.359375 26.410156 21.347656 26.398438 21.328125 C 26.261719 21.042969 26.457031 20.070312 26.726562 19.851562 C 27.035156 19.792969 27.316406 19.722656 27.605469 19.917969 C 27.589844 20.539062 27.449219 21.121094 27.347656 21.734375 Z M 27.347656 21.734375 "/>
<path style=" stroke:none;fill-rule:nonzero;fill:rgb(48.627451%,28.235295%,68.235296%);fill-opacity:1;" d="M 27.636719 19.914062 C 27.339844 19.933594 27.058594 19.933594 26.742188 19.929688 C 26.648438 19.875 26.625 19.804688 26.632812 19.699219 C 26.65625 19.273438 26.59375 18.855469 26.886719 18.5 C 27.199219 18.496094 27.480469 18.5 27.792969 18.503906 C 27.804688 18.972656 27.71875 19.429688 27.636719 19.914062 Z M 27.636719 19.914062 "/>
<path style=" stroke:none;fill-rule:nonzero;fill:rgb(87.843138%,74.509805%,100%);fill-opacity:1;" d="M 17.550781 17.898438 C 17.675781 17.707031 17.855469 17.75 18.015625 17.75 C 19.964844 17.75 21.914062 17.75 23.890625 17.75 C 24.070312 17.804688 24.070312 17.9375 24.078125 18.058594 C 24.09375 18.308594 24.09375 18.554688 24.070312 18.835938 C 24.070312 19.089844 24.113281 19.316406 24.015625 19.5625 C 23.617188 19.800781 23.207031 19.695312 22.78125 19.6875 C 22.585938 19.71875 22.515625 19.597656 22.4375 19.488281 C 22.011719 18.90625 21.410156 18.722656 20.753906 18.863281 C 20.140625 18.996094 19.757812 19.433594 19.609375 20.0625 C 19.578125 20.1875 19.601562 20.339844 19.441406 20.433594 C 19.101562 20.433594 18.78125 20.429688 18.425781 20.425781 C 18.289062 20.339844 18.289062 20.21875 18.3125 20.109375 C 18.378906 19.800781 18.328125 19.496094 18.265625 19.171875 C 18.171875 18.832031 17.976562 18.585938 17.78125 18.332031 C 17.683594 18.207031 17.546875 18.101562 17.550781 17.898438 Z M 17.550781 17.898438 "/>
<path style=" stroke:none;fill-rule:nonzero;fill:rgb(90.196079%,75.294119%,100%);fill-opacity:1;" d="M 22.671875 19.636719 C 23.074219 19.496094 23.472656 19.59375 23.890625 19.5625 C 24.082031 19.605469 24.066406 19.746094 24.085938 19.863281 C 24.109375 20.027344 24.207031 20.09375 24.363281 20.097656 C 24.527344 20.101562 24.679688 20.089844 24.726562 19.886719 C 24.75 19.785156 24.765625 19.683594 24.886719 19.609375 C 25.507812 19.523438 26.101562 19.453125 26.710938 19.664062 C 26.722656 19.75 26.714844 19.816406 26.710938 19.902344 C 26.582031 20.25 26.585938 20.601562 26.523438 20.9375 C 26.496094 21.066406 26.433594 21.1875 26.441406 21.347656 C 25.941406 21.375 25.441406 21.375 24.910156 21.375 C 24.578125 21.332031 24.269531 21.3125 23.941406 21.375 C 23.488281 21.375 23.054688 21.375 22.59375 21.375 C 22.480469 21.273438 22.507812 21.171875 22.554688 21.0625 C 22.636719 20.890625 22.691406 20.707031 22.746094 20.496094 C 22.753906 20.195312 22.570312 19.941406 22.671875 19.636719 Z M 22.671875 19.636719 "/>
<path style=" stroke:none;fill-rule:nonzero;fill:rgb(90.588236%,75.294119%,100%);fill-opacity:1;" d="M 15.066406 21.488281 C 14.347656 21.5 13.65625 21.5 12.964844 21.5 C 12.835938 21.5 12.695312 21.523438 12.558594 21.410156 C 12.425781 21.230469 12.554688 21.101562 12.59375 20.957031 C 12.628906 20.832031 12.6875 20.710938 12.707031 20.550781 C 12.730469 20.300781 12.667969 20.082031 12.617188 19.867188 C 12.589844 19.746094 12.550781 19.628906 12.625 19.484375 C 12.691406 19.359375 12.78125 19.3125 12.890625 19.308594 C 13.558594 19.277344 14.230469 19.269531 14.898438 19.3125 C 14.949219 19.316406 14.996094 19.34375 15.074219 19.375 C 15.210938 19.496094 15.203125 19.632812 15.207031 19.765625 C 15.214844 20.132812 15.222656 20.503906 15.195312 20.902344 C 15.183594 21.117188 15.253906 21.316406 15.066406 21.488281 Z M 15.066406 21.488281 "/>
<path style=" stroke:none;fill-rule:nonzero;fill:rgb(48.627451%,28.235295%,68.235296%);fill-opacity:1;" d="M 22.671875 19.609375 C 22.785156 19.886719 22.894531 20.152344 22.855469 20.472656 C 22.613281 20.75 22.3125 20.617188 22.007812 20.617188 C 21.824219 20.546875 21.8125 20.390625 21.761719 20.257812 C 21.632812 19.917969 21.417969 19.765625 21.113281 19.777344 C 20.800781 19.792969 20.621094 19.949219 20.523438 20.3125 C 20.492188 20.414062 20.476562 20.515625 20.351562 20.585938 C 20.039062 20.652344 19.753906 20.710938 19.464844 20.519531 C 19.441406 20.488281 19.4375 20.480469 19.425781 20.453125 C 19.492188 19.542969 19.960938 18.894531 20.65625 18.722656 C 21.472656 18.519531 22.324219 18.890625 22.671875 19.609375 Z M 22.671875 19.609375 "/>
<path style=" stroke:none;fill-rule:nonzero;fill:rgb(52.941179%,28.235295%,69.01961%);fill-opacity:1;" d="M 19.441406 20.523438 C 19.730469 20.5 20.019531 20.5 20.335938 20.5 C 20.488281 20.503906 20.539062 20.59375 20.601562 20.679688 C 20.878906 21.074219 21.328125 21.09375 21.652344 20.730469 C 21.726562 20.648438 21.761719 20.523438 21.914062 20.5 C 22.222656 20.5 22.507812 20.5 22.824219 20.5 C 22.851562 20.808594 22.730469 21.074219 22.574219 21.355469 C 22.144531 21.875 21.625 22.164062 20.957031 22.082031 C 20.125 21.984375 19.542969 21.390625 19.441406 20.523438 Z M 19.441406 20.523438 "/>
<path style=" stroke:none;fill-rule:nonzero;fill:rgb(52.941179%,28.235295%,69.01961%);fill-opacity:1;" d="M 12.8125 20.539062 C 12.832031 20.863281 12.699219 21.109375 12.546875 21.371094 C 11.8125 22.191406 11.007812 22.316406 10.089844 21.753906 C 9.710938 21.640625 9.507812 21.375 9.367188 21.050781 C 9.289062 20.875 9.261719 20.691406 9.417969 20.507812 C 9.703125 20.378906 9.980469 20.410156 10.277344 20.449219 C 10.449219 20.476562 10.527344 20.578125 10.609375 20.691406 C 10.882812 21.085938 11.347656 21.097656 11.648438 20.722656 C 11.738281 20.609375 11.800781 20.472656 11.996094 20.457031 C 12.285156 20.417969 12.550781 20.355469 12.8125 20.539062 Z M 12.8125 20.539062 "/>
<path style=" stroke:none;fill-rule:nonzero;fill:rgb(53.725493%,29.019609%,69.01961%);fill-opacity:1;" d="M 15.042969 21.527344 C 15.042969 21.332031 15.050781 21.160156 15.058594 20.964844 C 15.308594 20.703125 15.601562 20.804688 15.90625 20.824219 C 16.292969 21.066406 16.613281 20.960938 16.929688 20.726562 C 17.027344 20.652344 17.132812 20.578125 17.292969 20.59375 C 17.617188 20.632812 17.933594 20.523438 18.230469 20.726562 C 17.824219 21.652344 17.082031 22.054688 16.117188 22.105469 C 15.878906 22.117188 15.640625 22.085938 15.402344 22.113281 C 15.105469 22.140625 15.011719 22.019531 15.050781 21.742188 C 15.058594 21.683594 15.046875 21.617188 15.042969 21.527344 Z M 15.042969 21.527344 "/>
<path style=" stroke:none;fill-rule:nonzero;fill:rgb(91.37255%,75.294119%,100%);fill-opacity:1;" d="M 9.460938 20.535156 C 9.410156 21.066406 9.726562 21.390625 10.058594 21.730469 C 9.441406 21.75 8.8125 21.75 8.15625 21.75 C 7.964844 21.660156 8.003906 21.503906 7.996094 21.332031 C 7.984375 20.972656 7.929688 20.640625 8.066406 20.292969 C 8.519531 20.101562 8.953125 20.132812 9.421875 20.253906 C 9.507812 20.34375 9.515625 20.421875 9.460938 20.535156 Z M 9.460938 20.535156 "/>
<path style=" stroke:none;fill-rule:nonzero;fill:rgb(48.627451%,28.235295%,68.235296%);fill-opacity:1;" d="M 18.257812 20.734375 C 17.921875 20.734375 17.589844 20.792969 17.246094 20.683594 C 17.144531 20.578125 17.1875 20.484375 17.230469 20.386719 C 17.371094 20.058594 17.449219 19.726562 17.332031 19.371094 C 17.296875 19.265625 17.316406 19.167969 17.382812 19.050781 C 17.707031 18.863281 18.011719 18.867188 18.34375 19.042969 C 18.535156 19.492188 18.511719 19.929688 18.398438 20.394531 C 18.355469 20.519531 18.3125 20.617188 18.257812 20.734375 Z M 18.257812 20.734375 "/>
<path style=" stroke:none;fill-rule:nonzero;fill:rgb(54.11765%,27.843139%,68.235296%);fill-opacity:1;" d="M 23.925781 21.402344 C 23.941406 21.320312 23.957031 21.222656 23.980469 21.21875 C 24.269531 21.1875 24.5625 21.144531 24.847656 21.238281 C 24.863281 21.242188 24.863281 21.292969 24.878906 21.347656 C 24.878906 21.40625 24.875 21.4375 24.875 21.46875 C 24.855469 22.183594 24.855469 22.179688 24.136719 22.128906 C 23.992188 22.121094 23.925781 22.078125 23.933594 21.929688 C 23.9375 21.765625 23.929688 21.597656 23.925781 21.402344 Z M 23.925781 21.402344 "/>
<path style=" stroke:none;fill-rule:nonzero;fill:rgb(55.686277%,31.37255%,70.588237%);fill-opacity:1;" d="M 8.070312 21.285156 C 8.097656 21.4375 8.105469 21.566406 8.121094 21.722656 C 8.160156 22.058594 8.023438 22.152344 7.714844 22.136719 C 7.175781 22.109375 7.175781 22.128906 7.15625 21.527344 C 7.160156 21.453125 7.164062 21.40625 7.175781 21.335938 C 7.460938 21.097656 7.753906 21.125 8.070312 21.285156 Z M 8.070312 21.285156 "/>
<path style=" stroke:none;fill-rule:nonzero;fill:rgb(49.803922%,27.450982%,68.235296%);fill-opacity:1;" d="M 8.09375 21.28125 C 7.808594 21.3125 7.523438 21.3125 7.210938 21.3125 C 7.175781 20.707031 7.167969 20.101562 7.160156 19.46875 C 7.160156 19.371094 7.167969 19.304688 7.179688 19.210938 C 7.476562 18.953125 7.792969 19.03125 8.136719 19.128906 C 8.324219 19.519531 8.328125 19.890625 8.144531 20.289062 C 8.113281 20.625 8.109375 20.941406 8.09375 21.28125 Z M 8.09375 21.28125 "/>
<path style=" stroke:none;fill-rule:nonzero;fill:rgb(83.137256%,72.941178%,100%);fill-opacity:1;" d="M 27.332031 14.164062 C 27.320312 14.527344 27.289062 14.863281 27.25 15.226562 C 24.246094 15.25 21.25 15.25 18.25 15.25 C 18.023438 15.25 17.792969 15.273438 17.5625 15.160156 C 17.59375 14.980469 17.738281 14.957031 17.863281 14.921875 C 18.269531 14.800781 18.601562 14.566406 18.894531 14.261719 C 18.988281 14.164062 19.085938 14.070312 19.261719 14.082031 C 19.476562 14.042969 19.664062 14.039062 19.851562 14.039062 C 22.136719 14.039062 24.425781 14.035156 26.714844 14.039062 C 26.914062 14.042969 27.132812 13.992188 27.332031 14.164062 Z M 27.332031 14.164062 "/>
<path style=" stroke:none;fill-rule:nonzero;fill:rgb(37.254903%,30.588236%,68.235296%);fill-opacity:1;" d="M 19.195312 14.171875 C 18.746094 14.664062 18.253906 15.035156 17.570312 15.136719 C 16.488281 15.148438 15.425781 15.152344 14.363281 15.15625 C 14.28125 15.15625 14.199219 15.128906 14.09375 15.105469 C 13.792969 14.933594 13.511719 14.777344 13.234375 14.617188 C 13.113281 14.542969 12.980469 14.535156 12.84375 14.535156 C 12.417969 14.535156 11.992188 14.523438 11.566406 14.539062 C 11.316406 14.550781 11.195312 14.480469 11.230469 14.210938 C 11.246094 14.101562 11.230469 13.984375 11.222656 13.839844 C 11.226562 13.707031 11.230469 13.597656 11.242188 13.464844 C 11.507812 13.199219 11.808594 13.304688 12.128906 13.328125 C 12.359375 13.382812 12.5625 13.433594 12.773438 13.414062 C 13.195312 13.371094 13.566406 13.511719 13.914062 13.742188 C 14.242188 13.960938 14.597656 14.054688 15 14.042969 C 15.695312 14.027344 16.390625 14.03125 17.085938 14.042969 C 17.511719 14.050781 17.886719 13.953125 18.191406 13.644531 C 18.242188 13.59375 18.300781 13.550781 18.402344 13.535156 C 18.746094 13.574219 19.066406 13.484375 19.398438 13.609375 C 19.542969 13.890625 19.515625 13.964844 19.195312 14.171875 Z M 19.195312 14.171875 "/>
<path style=" stroke:none;fill-rule:nonzero;fill:rgb(87.450981%,74.509805%,100%);fill-opacity:1;" d="M 15.0625 19.421875 C 14.386719 19.4375 13.734375 19.4375 13.082031 19.4375 C 12.949219 19.4375 12.808594 19.417969 12.691406 19.5625 C 12.542969 19.625 12.464844 19.539062 12.390625 19.449219 C 11.859375 18.808594 11.191406 18.699219 10.429688 18.949219 C 10.339844 18.980469 10.253906 19.011719 10.132812 18.957031 C 9.628906 18.957031 9.148438 18.96875 8.667969 18.960938 C 8.496094 18.957031 8.320312 18.96875 8.128906 18.882812 C 7.886719 18.507812 8.003906 18.265625 8.410156 18.234375 C 8.554688 18.222656 8.699219 18.230469 8.84375 18.21875 C 9.207031 18.183594 9.277344 18.121094 9.367188 17.769531 C 9.382812 17.699219 9.402344 17.628906 9.492188 17.574219 C 11.339844 17.5625 13.160156 17.5625 15.007812 17.5625 C 15.167969 17.609375 15.195312 17.722656 15.199219 17.839844 C 15.210938 18.285156 15.242188 18.734375 15.171875 19.210938 C 15.15625 19.304688 15.136719 19.363281 15.0625 19.421875 Z M 15.0625 19.421875 "/>
<path style=" stroke:none;fill-rule:nonzero;fill:rgb(45.09804%,28.235295%,68.235296%);fill-opacity:1;" d="M 9.511719 17.535156 C 9.515625 17.582031 9.511719 17.605469 9.507812 17.625 C 9.480469 18.347656 9.480469 18.347656 8.761719 18.351562 C 8.679688 18.351562 8.597656 18.351562 8.515625 18.351562 C 8.105469 18.351562 8.105469 18.351562 8.117188 18.785156 C 8.222656 18.921875 8.25 19.035156 8.121094 19.171875 C 7.808594 19.1875 7.527344 19.1875 7.214844 19.1875 C 7.179688 18.980469 7.167969 18.773438 7.171875 18.566406 C 7.171875 18.410156 7.101562 18.347656 6.945312 18.351562 C 6.65625 18.355469 6.367188 18.335938 6.078125 18.355469 C 5.820312 18.371094 5.71875 18.28125 5.75 18.023438 C 5.765625 17.910156 5.75 17.796875 5.746094 17.652344 C 5.746094 17.496094 5.785156 17.414062 5.941406 17.414062 C 7.070312 17.417969 8.199219 17.414062 9.328125 17.414062 C 9.398438 17.417969 9.476562 17.417969 9.511719 17.535156 Z M 9.511719 17.535156 "/>
<path style=" stroke:none;fill-rule:nonzero;fill:rgb(45.490196%,28.235295%,68.235296%);fill-opacity:1;" d="M 15.085938 19.269531 C 15.058594 18.707031 15.050781 18.164062 15.042969 17.589844 C 15.058594 17.492188 15.085938 17.421875 15.175781 17.421875 C 15.984375 17.410156 16.816406 17.3125 17.542969 17.871094 C 17.898438 18.207031 18.199219 18.566406 18.363281 19.039062 C 18.066406 19.085938 17.765625 19.011719 17.449219 19.128906 C 17.273438 19.1875 17.207031 19.066406 17.125 18.980469 C 16.949219 18.804688 16.761719 18.644531 16.519531 18.566406 C 16.277344 18.488281 16.175781 18.558594 16.148438 18.8125 C 16.125 18.992188 16.1875 19.195312 15.972656 19.332031 C 15.664062 19.40625 15.378906 19.460938 15.085938 19.269531 Z M 15.085938 19.269531 "/>
<path style=" stroke:none;fill-rule:nonzero;fill:rgb(87.843138%,74.509805%,100%);fill-opacity:1;" d="M 26.734375 19.664062 C 26.132812 19.6875 25.535156 19.6875 24.910156 19.6875 C 24.628906 19.476562 24.761719 19.191406 24.742188 18.90625 C 24.75 18.550781 24.648438 18.214844 24.855469 17.890625 C 25.554688 17.875 26.226562 17.878906 26.929688 17.878906 C 26.945312 18.066406 26.929688 18.253906 26.914062 18.46875 C 26.855469 18.875 26.800781 19.257812 26.734375 19.664062 Z M 26.734375 19.664062 "/>
<path style=" stroke:none;fill-rule:nonzero;fill:rgb(44.313726%,28.235295%,67.843139%);fill-opacity:1;" d="M 24.878906 17.847656 C 24.878906 18.1875 24.871094 18.503906 24.863281 18.84375 C 24.578125 19.097656 24.285156 19.058594 23.964844 18.898438 C 23.9375 18.519531 23.933594 18.164062 23.925781 17.78125 C 23.878906 17.4375 24.019531 17.324219 24.324219 17.371094 C 24.464844 17.390625 24.613281 17.378906 24.785156 17.382812 C 24.824219 17.394531 24.832031 17.398438 24.851562 17.421875 C 24.863281 17.5625 24.871094 17.691406 24.878906 17.847656 Z M 24.878906 17.847656 "/>
<path style=" stroke:none;fill-rule:nonzero;fill:rgb(48.627451%,28.235295%,68.235296%);fill-opacity:1;" d="M 24.859375 17.421875 C 24.847656 17.425781 24.839844 17.414062 24.820312 17.394531 C 24.835938 17.382812 24.851562 17.390625 24.859375 17.421875 Z M 24.859375 17.421875 "/>
<path style=" stroke:none;fill-rule:nonzero;fill:rgb(30.19608%,28.627452%,67.058825%);fill-opacity:1;" d="M 12.1875 13.421875 C 11.875 13.4375 11.589844 13.4375 11.277344 13.4375 C 11.242188 12.976562 11.238281 12.519531 11.226562 12.027344 C 11.226562 11.808594 11.234375 11.621094 11.246094 11.402344 C 11.542969 11.140625 11.855469 11.21875 12.199219 11.320312 C 12.246094 11.371094 12.238281 11.320312 12.246094 11.359375 C 12.398438 12.027344 12.375 12.695312 12.261719 13.367188 C 12.257812 13.382812 12.230469 13.394531 12.1875 13.421875 Z M 12.1875 13.421875 "/>
<path style=" stroke:none;fill-rule:nonzero;fill:rgb(25.098041%,29.019609%,66.666669%);fill-opacity:1;" d="M 12.1875 11.359375 C 11.875 11.375 11.589844 11.375 11.28125 11.375 C 11.242188 10.875 11.238281 10.371094 11.226562 9.84375 C 11.226562 9.746094 11.234375 9.679688 11.246094 9.585938 C 11.542969 9.328125 11.859375 9.40625 12.203125 9.507812 C 12.304688 9.59375 12.316406 9.683594 12.324219 9.777344 C 12.347656 10.207031 12.34375 10.640625 12.324219 11.070312 C 12.320312 11.171875 12.308594 11.277344 12.1875 11.359375 Z M 12.1875 11.359375 "/>
<path style=" stroke:none;fill-rule:nonzero;fill:rgb(21.960784%,30.19608%,67.058825%);fill-opacity:1;" d="M 12.183594 9.554688 C 11.875 9.5625 11.589844 9.5625 11.28125 9.5625 C 11.246094 9.113281 11.246094 8.667969 11.230469 8.21875 C 11.222656 8.015625 11.300781 7.949219 11.5 7.953125 C 12.25 7.957031 13 7.945312 13.777344 7.933594 C 14.097656 7.832031 14.386719 7.816406 14.703125 7.933594 C 14.976562 8.472656 14.675781 9.007812 14.125 9.019531 C 13.710938 9.03125 13.296875 9.019531 12.882812 9.023438 C 12.453125 9.027344 12.453125 9.03125 12.304688 9.425781 C 12.285156 9.472656 12.257812 9.515625 12.183594 9.554688 Z M 12.183594 9.554688 "/>
<path style=" stroke:none;fill-rule:nonzero;fill:rgb(18.431373%,30.588236%,66.666669%);fill-opacity:1;" d="M 14.757812 8.007812 C 14.4375 7.964844 14.136719 8.050781 13.828125 7.941406 C 13.824219 7.820312 13.847656 7.714844 13.867188 7.585938 C 13.949219 7.285156 14.035156 7.007812 14.128906 6.710938 C 14.398438 6.460938 14.703125 6.546875 15.027344 6.589844 C 15.136719 6.660156 15.199219 6.742188 15.179688 6.835938 C 15.101562 7.242188 15.078125 7.667969 14.757812 8.007812 Z M 14.757812 8.007812 "/>
<path style=" stroke:none;fill-rule:nonzero;fill:rgb(15.294118%,30.588236%,66.274512%);fill-opacity:1;" d="M 15.097656 6.695312 C 14.78125 6.691406 14.488281 6.6875 14.164062 6.6875 C 14.214844 6.371094 14.292969 6.054688 14.367188 5.710938 C 14.472656 5.550781 14.472656 5.375 14.496094 5.222656 C 14.535156 4.980469 14.660156 4.945312 14.855469 4.949219 C 15.414062 4.96875 15.9375 5.09375 16.414062 5.4375 C 16.710938 5.394531 16.847656 5.597656 16.980469 5.773438 C 17.199219 6.0625 17.335938 6.394531 17.476562 6.757812 C 17.511719 6.941406 17.582031 7.105469 17.46875 7.285156 C 17.183594 7.445312 16.902344 7.398438 16.601562 7.363281 C 16.398438 7.320312 16.335938 7.179688 16.277344 7.03125 C 16.164062 6.730469 15.988281 6.476562 15.722656 6.292969 C 15.484375 6.125 15.398438 6.160156 15.316406 6.441406 C 15.285156 6.554688 15.246094 6.660156 15.097656 6.695312 Z M 15.097656 6.695312 "/>
<path style=" stroke:none;fill-rule:nonzero;fill:rgb(72.156864%,69.411767%,100%);fill-opacity:1;" d="M 17.378906 6.789062 C 17.136719 6.292969 16.921875 5.800781 16.445312 5.464844 C 16.527344 5.296875 16.675781 5.3125 16.820312 5.3125 C 17.5 5.3125 18.179688 5.3125 18.886719 5.3125 C 19.222656 5.351562 19.53125 5.378906 19.859375 5.3125 C 20.582031 5.3125 21.285156 5.3125 22.015625 5.3125 C 22.351562 5.351562 22.65625 5.378906 22.984375 5.3125 C 24.609375 5.3125 26.210938 5.3125 27.84375 5.3125 C 27.882812 5.734375 27.878906 6.15625 27.828125 6.601562 C 27.722656 6.738281 27.59375 6.765625 27.453125 6.769531 C 25.539062 6.777344 23.625 6.785156 21.707031 6.765625 C 21.65625 6.761719 21.605469 6.753906 21.527344 6.730469 C 21.402344 6.695312 21.335938 6.632812 21.3125 6.535156 C 21.269531 6.335938 21.144531 6.273438 20.949219 6.273438 C 20.765625 6.277344 20.660156 6.363281 20.625 6.539062 C 20.609375 6.601562 20.570312 6.652344 20.496094 6.699219 C 20.34375 6.765625 20.207031 6.769531 20.074219 6.773438 C 19.1875 6.78125 18.296875 6.761719 17.378906 6.789062 Z M 17.378906 6.789062 "/>
<path style=" stroke:none;fill-rule:nonzero;fill:rgb(14.117648%,30.980393%,67.058825%);fill-opacity:1;" d="M 23.003906 5.285156 C 23.003906 5.34375 23.007812 5.378906 22.992188 5.402344 C 22.882812 5.589844 22.175781 5.5625 22.046875 5.339844 C 22.046875 5.28125 22.054688 5.25 22.054688 5.21875 C 22.074219 4.550781 22.074219 4.554688 22.746094 4.570312 C 22.929688 4.578125 23.015625 4.625 23 4.820312 C 22.988281 4.964844 22.996094 5.109375 23.003906 5.285156 Z M 23.003906 5.285156 "/>
<path style=" stroke:none;fill-rule:nonzero;fill:rgb(14.117648%,30.980393%,67.058825%);fill-opacity:1;" d="M 19.875 5.285156 C 19.875 5.34375 19.878906 5.378906 19.863281 5.402344 C 19.753906 5.589844 19.050781 5.5625 18.921875 5.339844 C 18.917969 5.28125 18.925781 5.25 18.925781 5.21875 C 18.945312 4.546875 18.945312 4.554688 19.617188 4.570312 C 19.800781 4.578125 19.886719 4.625 19.871094 4.820312 C 19.859375 4.964844 19.871094 5.109375 19.875 5.285156 Z M 19.875 5.285156 "/>
<path style=" stroke:none;fill-rule:nonzero;fill:rgb(9.803922%,30.588236%,65.882355%);fill-opacity:1;" d="M 21.390625 3.011719 C 21.421875 3.195312 21.429688 3.382812 21.441406 3.597656 C 21.472656 3.898438 21.34375 3.992188 21.082031 3.957031 C 20.980469 3.941406 20.875 3.941406 20.773438 3.953125 C 20.558594 3.980469 20.460938 3.898438 20.484375 3.652344 C 20.488281 3.4375 20.492188 3.25 20.507812 3.03125 C 20.796875 3.007812 21.078125 3.007812 21.390625 3.011719 Z M 21.390625 3.011719 "/>
<path style=" stroke:none;fill-rule:nonzero;fill:rgb(81.960785%,72.549021%,100%);fill-opacity:1;" d="M 19.203125 14.183594 C 19.25 14.03125 19.328125 13.878906 19.410156 13.707031 C 19.300781 13.394531 19.390625 13.152344 19.625 12.925781 C 19.832031 12.847656 20.019531 12.851562 20.207031 12.851562 C 22.414062 12.847656 24.617188 12.847656 26.824219 12.851562 C 27.015625 12.855469 27.222656 12.808594 27.414062 12.976562 C 27.4375 13.027344 27.441406 13.054688 27.449219 13.105469 C 27.304688 13.449219 27.433594 13.800781 27.355469 14.160156 C 24.644531 14.1875 21.9375 14.183594 19.203125 14.183594 Z M 19.203125 14.183594 "/>
<path style=" stroke:none;fill-rule:nonzero;fill:rgb(78.431374%,71.372551%,100%);fill-opacity:1;" d="M 27.644531 9.914062 C 27.644531 10.3125 27.625 10.6875 27.609375 11.09375 C 27.546875 11.289062 27.578125 11.464844 27.550781 11.660156 C 27.433594 11.855469 27.253906 11.832031 27.09375 11.832031 C 26.355469 11.84375 25.621094 11.835938 24.882812 11.835938 C 23.449219 11.835938 22.019531 11.839844 20.585938 11.835938 C 20.390625 11.835938 20.191406 11.847656 19.96875 11.777344 C 19.910156 11.738281 19.882812 11.710938 19.855469 11.644531 C 19.855469 11 19.929688 10.402344 20.308594 9.863281 C 20.515625 9.78125 20.703125 9.789062 20.890625 9.789062 C 22.945312 9.785156 25 9.785156 27.054688 9.789062 C 27.246094 9.792969 27.453125 9.746094 27.644531 9.914062 Z M 27.644531 9.914062 "/>
<path style=" stroke:none;fill-rule:nonzero;fill:rgb(80.000001%,72.156864%,100%);fill-opacity:1;" d="M 19.894531 11.691406 C 22.441406 11.6875 24.964844 11.6875 27.515625 11.6875 C 27.511719 12.105469 27.480469 12.527344 27.441406 12.972656 C 24.851562 13 22.269531 13 19.660156 13 C 19.582031 12.976562 19.535156 12.933594 19.539062 12.882812 C 19.578125 12.472656 19.582031 12.046875 19.894531 11.691406 Z M 19.894531 11.691406 "/>
<path style=" stroke:none;fill-rule:nonzero;fill:rgb(76.078433%,70.588237%,100%);fill-opacity:1;" d="M 27.667969 9.910156 C 25.226562 9.9375 22.792969 9.9375 20.328125 9.9375 C 20.136719 9.839844 20.1875 9.667969 20.148438 9.5 C 20.082031 9.109375 19.890625 8.804688 19.660156 8.527344 C 19.570312 8.421875 19.46875 8.332031 19.535156 8.148438 C 19.683594 7.949219 19.886719 7.980469 20.066406 7.980469 C 21.105469 7.96875 22.144531 7.976562 23.183594 7.976562 C 24.511719 7.976562 25.839844 7.972656 27.171875 7.976562 C 27.351562 7.980469 27.546875 7.941406 27.726562 8.101562 C 27.804688 8.441406 27.609375 8.75 27.71875 9.097656 C 27.703125 9.375 27.691406 9.628906 27.667969 9.910156 Z M 27.667969 9.910156 "/>
<path style=" stroke:none;fill-rule:nonzero;fill:rgb(74.117649%,70.19608%,100%);fill-opacity:1;" d="M 27.757812 8.097656 C 25.199219 8.125 22.652344 8.125 20.101562 8.125 C 19.925781 8.125 19.746094 8.09375 19.578125 8.242188 C 19.488281 8.316406 19.40625 8.320312 19.324219 8.289062 C 18.855469 8.089844 18.363281 8.085938 17.863281 8.082031 C 17.3125 8.078125 17.167969 7.835938 17.386719 7.273438 C 17.386719 7.109375 17.371094 6.972656 17.351562 6.808594 C 17.472656 6.625 17.652344 6.625 17.832031 6.625 C 18.695312 6.625 19.558594 6.625 20.453125 6.625 C 20.535156 6.628906 20.574219 6.660156 20.605469 6.699219 C 20.84375 7.003906 21.117188 7 21.332031 6.695312 C 21.351562 6.671875 21.375 6.652344 21.421875 6.628906 C 23.550781 6.625 25.65625 6.625 27.789062 6.625 C 27.820312 6.753906 27.820312 6.878906 27.824219 7.035156 C 27.808594 7.398438 27.785156 7.738281 27.757812 8.097656 Z M 27.757812 8.097656 "/>
<path style=" stroke:none;fill-rule:nonzero;fill:rgb(48.627451%,28.235295%,68.235296%);fill-opacity:1;" d="M 23.941406 18.902344 C 24.230469 18.875 24.515625 18.875 24.832031 18.875 C 24.863281 19.125 24.871094 19.378906 24.878906 19.660156 C 24.851562 20.253906 24.851562 20.238281 24.289062 20.257812 C 24.007812 20.269531 23.886719 20.191406 23.929688 19.898438 C 23.945312 19.808594 23.929688 19.714844 23.925781 19.589844 C 23.925781 19.351562 23.929688 19.140625 23.941406 18.902344 Z M 23.941406 18.902344 "/>
<path style=" stroke:none;fill-rule:nonzero;fill:rgb(48.627451%,28.235295%,68.235296%);fill-opacity:1;" d="M 10.167969 18.886719 C 10.820312 18.628906 11.445312 18.558594 12.050781 18.9375 C 12.296875 19.09375 12.480469 19.316406 12.660156 19.570312 C 12.769531 19.886719 12.902344 20.1875 12.835938 20.542969 C 12.539062 20.5625 12.253906 20.558594 11.9375 20.554688 C 11.785156 20.480469 11.78125 20.34375 11.738281 20.230469 C 11.601562 19.882812 11.398438 19.746094 11.046875 19.777344 C 10.761719 19.800781 10.597656 19.964844 10.519531 20.300781 C 10.5 20.394531 10.5 20.492188 10.386719 20.554688 C 10.078125 20.5625 9.789062 20.5625 9.472656 20.5625 C 9.433594 20.496094 9.425781 20.429688 9.414062 20.339844 C 9.324219 20.214844 9.28125 20.097656 9.316406 19.96875 C 9.394531 19.648438 9.511719 19.34375 9.742188 19.089844 C 9.851562 18.96875 9.980469 18.898438 10.167969 18.886719 Z M 10.167969 18.886719 "/>
<path style=" stroke:none;fill-rule:nonzero;fill:rgb(49.803922%,27.450982%,68.235296%);fill-opacity:1;" d="M 15.0625 19.273438 C 15.351562 19.25 15.636719 19.25 15.949219 19.25 C 16.078125 19.28125 16.117188 19.363281 16.125 19.460938 C 16.160156 19.890625 16.167969 20.320312 16.121094 20.75 C 16.117188 20.816406 16.082031 20.867188 16.003906 20.921875 C 15.691406 20.9375 15.40625 20.9375 15.09375 20.9375 C 15.058594 20.457031 15.050781 19.976562 15.042969 19.46875 C 15.042969 19.390625 15.050781 19.34375 15.0625 19.273438 Z M 15.0625 19.273438 "/>
<path style=" stroke:none;fill-rule:nonzero;fill:rgb(89.411765%,74.509805%,99.607843%);fill-opacity:1;" d="M 21.933594 20.476562 C 21.816406 20.839844 21.625 21.105469 21.230469 21.144531 C 20.824219 21.1875 20.558594 21 20.371094 20.519531 C 20.386719 19.964844 20.621094 19.660156 21.042969 19.613281 C 21.546875 19.558594 21.878906 19.875 21.933594 20.476562 Z M 21.933594 20.476562 "/>
<path style=" stroke:none;fill-rule:nonzero;fill:rgb(89.411765%,74.509805%,99.607843%);fill-opacity:1;" d="M 10.375 20.582031 C 10.363281 20.03125 10.546875 19.722656 10.929688 19.628906 C 11.484375 19.492188 11.921875 19.882812 11.90625 20.53125 C 11.78125 20.90625 11.550781 21.140625 11.160156 21.152344 C 10.773438 21.164062 10.523438 20.953125 10.375 20.582031 Z M 10.375 20.582031 "/>
<path style=" stroke:none;fill-rule:nonzero;fill:rgb(89.019608%,74.509805%,99.607843%);fill-opacity:1;" d="M 15.980469 20.960938 C 15.980469 20.394531 15.984375 19.851562 15.980469 19.277344 C 15.980469 19.042969 16 18.835938 15.988281 18.628906 C 15.972656 18.421875 16.0625 18.363281 16.257812 18.371094 C 16.789062 18.394531 17.136719 18.683594 17.414062 19.128906 C 17.625 19.675781 17.578125 20.175781 17.226562 20.65625 C 16.933594 20.953125 16.609375 21.132812 16.207031 21.160156 C 16.066406 21.167969 15.980469 21.140625 15.980469 20.960938 Z M 15.980469 20.960938 "/>
<path style=" stroke:none;fill-rule:nonzero;fill:rgb(89.019608%,74.509805%,99.607843%);fill-opacity:1;" d="M 10.167969 18.867188 C 9.925781 19.109375 9.667969 19.34375 9.546875 19.699219 C 9.484375 19.882812 9.429688 20.066406 9.414062 20.289062 C 9 20.3125 8.589844 20.3125 8.152344 20.3125 C 8.117188 19.957031 8.109375 19.601562 8.097656 19.214844 C 8.097656 19.078125 8.105469 18.972656 8.117188 18.839844 C 8.796875 18.839844 9.472656 18.757812 10.167969 18.867188 Z M 10.167969 18.867188 "/>
<path style=" stroke:none;fill-rule:nonzero;fill:rgb(99.607843%,99.607843%,99.607843%);fill-opacity:1;" d="M 15.074219 6.71875 C 15.144531 6.550781 15.175781 6.402344 15.199219 6.25 C 15.246094 5.945312 15.316406 5.910156 15.597656 6.042969 C 16.09375 6.277344 16.363281 6.683594 16.484375 7.230469 C 16.617188 7.339844 16.640625 7.46875 16.644531 7.609375 C 16.648438 7.835938 16.644531 8.066406 16.652344 8.292969 C 16.660156 8.640625 16.730469 8.714844 17.074219 8.722656 C 17.53125 8.734375 17.988281 8.714844 18.445312 8.730469 C 18.890625 8.746094 19.246094 8.925781 19.457031 9.371094 C 19.515625 9.589844 19.511719 9.78125 19.46875 9.976562 C 19.351562 10.484375 19.273438 11.003906 19.113281 11.53125 C 19.015625 12.117188 18.871094 12.664062 18.75 13.21875 C 18.714844 13.378906 18.648438 13.535156 18.441406 13.605469 C 18.050781 14.070312 17.570312 14.242188 16.988281 14.21875 C 16.378906 14.195312 15.765625 14.191406 15.152344 14.21875 C 14.667969 14.242188 14.222656 14.171875 13.835938 13.871094 C 13.453125 13.574219 13.015625 13.570312 12.566406 13.582031 C 12.4375 13.585938 12.269531 13.667969 12.167969 13.464844 C 12.164062 12.769531 12.167969 12.101562 12.164062 11.402344 C 12.160156 10.789062 12.167969 10.203125 12.164062 9.589844 C 12.207031 8.894531 12.207031 8.894531 12.898438 8.894531 C 13.34375 8.894531 13.792969 8.886719 14.238281 8.898438 C 14.441406 8.90625 14.539062 8.84375 14.570312 8.636719 C 14.605469 8.445312 14.671875 8.257812 14.726562 8.042969 C 14.84375 7.589844 14.960938 7.167969 15.074219 6.71875 Z M 15.074219 6.71875 "/>
<path style=" stroke:none;fill-rule:nonzero;fill:rgb(31.764707%,29.803923%,67.450982%);fill-opacity:1;" d="M 18.445312 13.628906 C 18.734375 12.980469 18.777344 12.269531 18.972656 11.578125 C 19.273438 11.351562 19.574219 11.371094 19.898438 11.539062 C 19.917969 11.589844 19.917969 11.617188 19.917969 11.664062 C 19.820312 12.109375 19.726562 12.527344 19.628906 12.976562 C 19.566406 13.214844 19.5 13.429688 19.425781 13.664062 C 19.101562 13.667969 18.78125 13.734375 18.445312 13.628906 Z M 18.445312 13.628906 "/>
<path style=" stroke:none;fill-rule:nonzero;fill:rgb(21.176471%,30.19608%,66.666669%);fill-opacity:1;" d="M 19.367188 9.464844 C 19.175781 9.058594 18.878906 8.890625 18.460938 8.894531 C 17.890625 8.902344 17.320312 8.886719 16.75 8.898438 C 16.554688 8.902344 16.476562 8.855469 16.484375 8.644531 C 16.5 8.199219 16.488281 7.753906 16.488281 7.277344 C 16.777344 7.25 17.0625 7.25 17.375 7.246094 C 17.40625 7.277344 17.417969 7.308594 17.421875 7.335938 C 17.472656 7.957031 17.472656 7.960938 18.113281 7.953125 C 18.605469 7.949219 19.085938 7.964844 19.539062 8.25 C 19.933594 8.546875 20.1875 8.910156 20.261719 9.410156 C 19.984375 9.675781 19.691406 9.605469 19.367188 9.464844 Z M 19.367188 9.464844 "/>
<path style=" stroke:none;fill-rule:nonzero;fill:rgb(18.431373%,30.588236%,66.666669%);fill-opacity:1;" d="M 21.441406 6.597656 C 21.394531 6.765625 21.519531 6.996094 21.355469 7.046875 C 21.105469 7.128906 20.816406 7.121094 20.558594 7.046875 C 20.421875 7.011719 20.515625 6.808594 20.484375 6.652344 C 20.511719 6.136719 20.511719 6.136719 20.996094 6.136719 C 21.429688 6.136719 21.429688 6.136719 21.441406 6.597656 Z M 21.441406 6.597656 "/>
<path style=" stroke:none;fill-rule:nonzero;fill:rgb(26.274511%,29.803923%,67.058825%);fill-opacity:1;" d="M 19.335938 9.476562 C 19.625 9.445312 19.914062 9.441406 20.230469 9.4375 C 20.332031 9.582031 20.296875 9.734375 20.296875 9.910156 C 20.179688 10.460938 20.054688 10.988281 19.929688 11.539062 C 19.628906 11.5625 19.339844 11.5625 19.015625 11.558594 C 19.101562 11.003906 19.210938 10.453125 19.332031 9.898438 C 19.359375 9.765625 19.378906 9.636719 19.335938 9.476562 Z M 19.335938 9.476562 "/>
</g>
</svg>
